<?xml version="1.0" encoding="UTF-8" standalone="no"?>
<!DOCTYPE svg PUBLIC "-//W3C//DTD SVG 1.1//EN" "http://www.w3.org/Graphics/SVG/1.1/DTD/svg11.dtd">
<svg width="100%" height="100%" viewBox="0 0 22 22" version="1.1" xmlns="http://www.w3.org/2000/svg" xmlns:xlink="http://www.w3.org/1999/xlink" xml:space="preserve" xmlns:serif="http://www.serif.com/" style="fill-rule:evenodd;clip-rule:evenodd;stroke-linejoin:round;stroke-miterlimit:2;">
    <g transform="matrix(1,0,0,1,-605.079211,-853.970958)">
        <g transform="matrix(1,0,0,1,-13.922345,-101.210022)">
            <g transform="matrix(0.153687,0,0,0.153687,-772.59109,772.427169)">
                <path d="M9121.29,1242.66C9124.43,1247.51 9130.91,1248.9 9135.77,1245.78L9149.27,1237.1C9151.62,1235.59 9153.27,1233.21 9153.86,1230.48L9158.99,1206.63C9160.21,1200.97 9156.61,1195.38 9150.94,1194.16L9128.72,1189.37C9123.05,1188.15 9117.46,1191.76 9116.24,1197.43L9111.11,1221.27C9110.52,1224 9111.04,1226.85 9112.56,1229.2L9121.29,1242.66Z" style="fill:rgb(6,134,243);fill-rule:nonzero;"/>
            </g>
            <g transform="matrix(0.153687,0,0,0.153687,-772.59109,797.644067)">
                <path d="M9129.23,1112.33C9126.09,1107.4 9119.53,1105.99 9114.64,1109.19L9101.11,1118.03C9098.79,1119.54 9097.17,1121.91 9096.58,1124.61L9091.44,1148.5C9090.22,1154.17 9093.82,1159.76 9099.49,1160.98L9121.71,1165.76C9127.38,1166.98 9132.97,1163.38 9134.19,1157.71L9139.33,1133.82C9139.92,1131.11 9139.41,1128.29 9137.93,1125.96L9129.23,1112.33Z" style="fill:rgb(6,134,243);fill-rule:nonzero;"/>
            </g>
            <g transform="matrix(0.153687,0,0,0.153687,-772.59109,788.175435)">
                <path d="M9142.17,1153.21C9137.32,1156.36 9135.92,1162.83 9139.05,1167.7L9147.72,1181.19C9149.23,1183.54 9151.61,1185.19 9154.34,1185.78L9178.19,1190.91C9183.86,1192.14 9189.44,1188.53 9190.66,1182.86L9195.45,1160.64C9196.67,1154.97 9193.07,1149.39 9187.4,1148.17L9163.55,1143.03C9160.82,1142.44 9157.97,1142.96 9155.63,1144.48L9142.17,1153.21Z" style="fill:rgb(6,134,243);fill-rule:nonzero;"/>
            </g>
            <g transform="matrix(0.153687,0,0,0.153687,-772.59109,781.935759)">
                <path d="M9063.03,1206.71L9086.93,1211.86C9089.63,1212.44 9092.45,1211.93 9094.78,1210.45L9108.41,1201.76C9113.34,1198.61 9114.76,1192.05 9111.56,1187.16L9102.71,1173.63C9101.2,1171.31 9098.84,1169.69 9096.14,1169.11L9072.24,1163.96C9066.57,1162.74 9060.99,1166.35 9059.77,1172.01L9054.98,1194.24C9053.76,1199.91 9057.36,1205.49 9063.03,1206.71" style="fill:rgb(6,134,243);fill-rule:nonzero;"/>
            </g>
        </g>
    </g>
</svg>
