<?xml version="1.0" encoding="UTF-8"?>
<svg id="Layer_2" data-name="Layer 2" xmlns="http://www.w3.org/2000/svg" viewBox="0 0 560.9 245.76">
  <defs>
    <style>
      .cls-1 {
        fill-rule: evenodd;
      }

      .cls-1, .cls-2 {
        fill: #fff;
      }
    </style>
  </defs>
  <g id="Layer_1-2" data-name="Layer 1">
    <g>
      <path class="cls-1" d="M0,0v104.64c0,91.9,100.35,141.13,100.35,141.13,0,0,100.72-49.23,100.72-141.13V0H0ZM55.08,66.74h18.07l.02,73.21h-18.11l.02-73.21ZM109.43,46.7v115.68c0,14.99-12.16,22.76-27.14,22.76s-27.24-6.55-27.24-19.29h.02c0-4.99,4.05-9.05,9.04-9.05s9.05,4.05,9.05,9.05h0c0,9.25.74,15.52,9.12,15.52,9.02,0,9.02-6.3,9.02-18.99V46.7c0-14.99,12.15-22.76,27.14-22.76s27.24,6.55,27.24,19.28h-.02c0,5-4.05,9.05-9.05,9.05s-9.04-4.05-9.04-9.05h-.01c0-9.24-.74-15.51-9.12-15.51-9.02,0-9.02,6.29-9.02,18.99ZM154.06,79.36h-8.37v60.63h-18.12v-60.63h-8.35v-12.62h34.85v12.62Z"/>
      <path class="cls-2" d="M270.22,105.74v24.69c0,5.62-3.25,10.15-12.16,10.15s-12.16-4.54-12.16-10.15v-24.69h4.43v24.43c0,4.23,2.32,6.44,7.73,6.44s7.73-2.22,7.73-6.44v-24.43h4.43Z"/>
      <path class="cls-2" d="M282.07,110.84v29.23h-4.23v-34.33h6.08l14.95,29.38v-29.38h4.23v34.33h-6.08l-14.95-29.23Z"/>
      <path class="cls-2" d="M316.45,140.07h-4.43v-34.33h4.43v34.33Z"/>
      <path class="cls-2" d="M322.48,105.74h4.28l10.05,30.46,10.05-30.46h4.28l-11.34,34.33h-5.98l-11.34-34.33Z"/>
      <path class="cls-2" d="M356.07,105.74h20.2v3.97h-15.77v10.77h14.64v3.97h-14.64v11.65h15.82v3.97h-20.26v-34.33Z"/>
      <path class="cls-2" d="M394.94,127.65h-8.4v12.42h-4.43v-34.33h13.09c7.37,0,9.95,3.2,9.95,8.45v4.95c0,4.07-1.5,6.86-5.46,7.99l8.92,12.94h-5.1l-8.56-12.42ZM395.04,109.71h-8.5v14.02h8.5c4.23,0,5.67-1.19,5.67-4.54v-4.95c0-3.4-1.44-4.54-5.67-4.54Z"/>
      <path class="cls-2" d="M420.86,140.58c-3.3,0-7.27-.62-10.21-1.8l.72-3.61c3.14.98,6.44,1.49,9.59,1.49,5.51,0,6.65-1.44,6.65-5.36,0-4.64-.05-5.05-7.11-6.65-8.3-1.86-9.28-3.45-9.28-10.57,0-5.98,2.47-8.87,10.98-8.87,2.99,0,6.55.41,9.28,1.13l-.36,3.76c-2.73-.62-5.98-.98-8.81-.98-5.62,0-6.65,1.13-6.65,5.1,0,4.74,0,4.95,6.8,6.65,9.12,2.27,9.59,3.61,9.59,10.31,0,5.98-1.75,9.38-11.19,9.38Z"/>
      <path class="cls-2" d="M442.59,140.07h-4.43v-34.33h4.43v34.33Z"/>
      <path class="cls-2" d="M461.52,105.74c8.4,0,11.03,4.38,11.03,9.85v14.64c0,5.46-2.63,9.85-11.03,9.85h-12.01v-34.33h12.01ZM453.95,136.1h7.42c5.21,0,6.75-2.16,6.75-6.19v-14.02c0-4.02-1.55-6.19-6.75-6.19h-7.42v26.39Z"/>
      <path class="cls-2" d="M504.97,140.07h-4.48l-2.84-8.25h-14.59l-2.78,8.25h-4.48l11.6-34.33h5.98l11.6,34.33ZM490.39,108.94l-6.13,19.02h12.27l-6.13-19.02Z"/>
      <path class="cls-2" d="M521,105.74c8.4,0,11.03,4.38,11.03,9.85v14.64c0,5.46-2.63,9.85-11.03,9.85h-12.01v-34.33h12.01ZM513.43,136.1h7.42c5.21,0,6.75-2.16,6.75-6.19v-14.02c0-4.02-1.55-6.19-6.75-6.19h-7.42v26.39Z"/>
      <path class="cls-2" d="M538.26,105.74h20.21v3.97h-15.77v10.77h14.64v3.97h-14.64v11.65h15.82v3.97h-20.26v-34.33Z"/>
      <path class="cls-2" d="M258.16,150.88c8.4,0,11.03,4.38,11.03,9.85v14.64c0,5.46-2.63,9.85-11.03,9.85h-12.01v-34.33h12.01ZM250.58,181.24h7.42c5.21,0,6.75-2.16,6.75-6.19v-14.02c0-4.02-1.55-6.19-6.75-6.19h-7.42v26.39Z"/>
      <path class="cls-2" d="M274.19,150.88h20.21v3.97h-15.77v10.77h14.64v3.97h-14.64v11.65h15.82v3.97h-20.26v-34.33Z"/>
      <path class="cls-2" d="M315.99,181.24h14.9v3.97h-19.33v-34.33h4.43v30.36Z"/>
      <path class="cls-2" d="M338.72,185.21h-4.43v-34.33h4.43v34.33Z"/>
      <path class="cls-2" d="M353.51,185.72c-3.3,0-7.27-.62-10.21-1.8l.72-3.61c3.14.98,6.44,1.49,9.59,1.49,5.52,0,6.65-1.44,6.65-5.36,0-4.64-.05-5.05-7.11-6.65-8.3-1.86-9.28-3.45-9.28-10.57,0-5.98,2.47-8.87,10.98-8.87,2.99,0,6.55.41,9.28,1.13l-.36,3.76c-2.73-.62-5.98-.98-8.81-.98-5.62,0-6.65,1.13-6.65,5.1,0,4.74,0,4.95,6.8,6.65,9.12,2.27,9.59,3.61,9.59,10.31,0,5.98-1.75,9.38-11.19,9.38Z"/>
      <path class="cls-2" d="M369.49,185.21v-34.33h13.25c5.41,0,8.09,2.42,8.09,6.96v3.97c0,2.63-.88,4.59-3.92,5.72,2.99.52,5.05,2.53,5.05,6.19v4.12c0,4.79-3.35,7.37-8.5,7.37h-13.97ZM386.4,157.94c0-2.22-1.24-3.25-3.92-3.25h-8.56v11.13h7.84c3.35,0,4.64-1.55,4.64-4.02v-3.87ZM387.53,173.87c0-2.73-1.55-4.23-4.95-4.23h-8.66v11.75h8.92c3.14,0,4.69-1.34,4.69-3.92v-3.61Z"/>
      <path class="cls-2" d="M422.07,175.31c0,5.72-3.56,10.41-12.42,10.41s-12.42-4.69-12.42-10.41v-14.54c0-5.72,3.56-10.41,12.42-10.41s12.42,4.69,12.42,10.41v14.54ZM401.65,175.21c0,4.23,2.58,6.6,7.99,6.6s7.99-2.37,7.99-6.6v-14.33c0-4.23-2.58-6.6-7.99-6.6s-7.99,2.37-7.99,6.6v14.33Z"/>
      <path class="cls-2" d="M453.66,185.21h-4.48l-2.83-8.25h-14.59l-2.78,8.25h-4.48l11.6-34.33h5.98l11.6,34.33ZM439.08,154.07l-6.13,19.02h12.27l-6.13-19.02Z"/>
      <g>
        <g>
          <path class="cls-2" d="M252.27,33.95h-17.13v-10.23h45.87v10.23h-17.13v51.12h-11.61v-51.12Z"/>
          <path class="cls-2" d="M288.39,23.72h37.58v10.23h-25.98v14.83h23.95v10.23h-23.95v15.84h25.98v10.22h-37.58V23.72Z"/>
          <path class="cls-2" d="M334.28,40.58c0-11.24,6.54-17.78,21.83-17.78,5.71,0,11.61.74,16.67,2.03l-1.29,10.04c-4.97-.92-10.78-1.56-15.01-1.56-8.01,0-10.59,2.76-10.59,9.3v23.58c0,6.54,2.58,9.3,10.59,9.3,4.24,0,10.04-.64,15.01-1.57l1.29,10.04c-5.07,1.29-10.96,2.03-16.67,2.03-15.29,0-21.83-6.54-21.83-17.78v-27.63Z"/>
          <path class="cls-2" d="M394.23,38.55v46.52h-11.33V23.72h15.47l23.3,46.61V23.72h11.33v61.35h-15.47l-23.3-46.52Z"/>
          <path class="cls-2" d="M456.95,85.07h-11.61V23.72h11.61v61.35Z"/>
          <path class="cls-2" d="M468.44,40.58c0-11.24,6.54-17.78,21.83-17.78,5.71,0,11.61.74,16.67,2.03l-1.29,10.04c-4.97-.92-10.78-1.56-15.01-1.56-8.01,0-10.59,2.76-10.59,9.3v23.58c0,6.54,2.58,9.3,10.59,9.3,4.24,0,10.04-.64,15.01-1.57l1.29,10.04c-5.07,1.29-10.96,2.03-16.67,2.03-15.29,0-21.83-6.54-21.83-17.78v-27.63Z"/>
          <path class="cls-2" d="M560.9,67.11c0,10.22-5.9,18.88-23.21,18.88s-23.21-8.66-23.21-18.88v-25.42c0-10.23,5.9-18.88,23.21-18.88s23.21,8.66,23.21,18.88v25.42ZM526.08,66.46c0,5.8,2.95,9.3,11.61,9.3s11.61-3.5,11.61-9.3v-24.13c0-5.8-2.95-9.3-11.61-9.3s-11.61,3.5-11.61,9.3v24.13Z"/>
        </g>
        <path class="cls-2" d="M300.95,13.9c4.29-2.64,8.48-5.29,12.13-8.12l4.29,6.75c-4.1,3.01-7.48,5.02-12.4,7.57l-4.01-6.2Z"/>
      </g>
    </g>
  </g>
</svg>