<?xml version="1.0" encoding="UTF-8" standalone="no"?>
<svg
   id="Layer_2"
   data-name="Layer 2"
   viewBox="0 0 359.94214 348.55637"
   version="1.1"
   sodipodi:docname="Asset 2- SVG transparent.svg"
   width="359.94214"
   height="348.55637"
   inkscape:version="1.4.4 (dcaf3e7, 2026-05-05)"
   xmlns:inkscape="http://www.inkscape.org/namespaces/inkscape"
   xmlns:sodipodi="http://sodipodi.sourceforge.net/DTD/sodipodi-0.dtd"
   xmlns="http://www.w3.org/2000/svg"
   xmlns:svg="http://www.w3.org/2000/svg">
  <sodipodi:namedview
     id="namedview23"
     pagecolor="#ffffff"
     bordercolor="#000000"
     borderopacity="0.25"
     inkscape:showpageshadow="2"
     inkscape:pageopacity="0.0"
     inkscape:pagecheckerboard="0"
     inkscape:deskcolor="#d1d1d1"
     inkscape:zoom="0.86319124"
     inkscape:cx="74.722723"
     inkscape:cy="82.832166"
     inkscape:window-width="1920"
     inkscape:window-height="1111"
     inkscape:window-x="-9"
     inkscape:window-y="-9"
     inkscape:window-maximized="1"
     inkscape:current-layer="g23" />
  <defs
     id="defs1">
    <style
       id="style1">
      .cls-1 {
        fill: #ffb404;
      }

      .cls-2 {
        fill: #fff;
      }

      .cls-3 {
        fill: none;
      }

      .cls-4 {
        fill: #0686f3;
      }

      .cls-5 {
        fill: #03037f;
      }
    </style>
  </defs>
  <g
     id="Layer_1-2"
     data-name="Layer 1"
     transform="translate(0.00878041,-0.00362083)">
    <g
       id="g23">
      <g
         id="g22">
        <g
           id="g4">
          <path
             class="cls-5"
             d="m 333.92,95.61 c 0,0 -0.02,-0.06 -0.03,-0.09 C 330.24,84.28 324.06,74.49 315.53,66.43 306.71,58.09 296.05,52.49 283.85,49.77 L 169.77,24.39 c -11.97,-2.66 -23.9,-2.12 -35.44,1.62 -4.87,1.57 -9.59,3.71 -14.04,6.34 -0.31,0.15 -0.62,0.33 -0.91,0.54 l -0.06,0.04 c -2.4,1.48 -4.72,3.11 -6.9,4.86 l -32.4,22.82 c -1.81,1.14 -3.6,2.4 -5.46,3.84 l -0.27,0.19 c -0.27,0.19 -0.52,0.4 -0.76,0.62 -2.64,2.12 -5.08,4.38 -7.26,6.72 -8.29,8.88 -13.85,19.45 -16.51,31.42 L 24.38,217.48 c -2.68,12.02 -2.1,23.96 1.71,35.48 3.66,11.08 9.85,20.82 18.39,28.97 8.91,8.49 19.54,14.15 31.6,16.83 l 114.08,25.38 c 12.29,2.73 24.43,2.1 36.08,-1.88 5.46,-1.87 10.65,-4.38 15.43,-7.46 0.13,-0.08 0.26,-0.16 0.38,-0.25 l 0.08,-0.06 c 1.19,-0.78 2.39,-1.63 3.67,-2.58 l 37,-26.06 c 0.17,-0.12 0.33,-0.25 0.49,-0.38 3.73,-2.67 7.18,-5.68 10.28,-8.95 8.33,-8.82 13.91,-19.39 16.59,-31.4 l 25.38,-114.08 c 2.66,-11.96 2.11,-23.88 -1.62,-35.45 z"
             id="path3" />
          <path
             class="cls-2"
             d="m 205.07,348.56 c -6.57,0 -13.19,-0.74 -19.85,-2.22 L 71.14,320.96 C 54.99,317.37 40.74,309.77 28.8,298.39 17.53,287.64 9.36,274.76 4.51,260.11 -0.6,244.65 -1.38,228.65 2.19,212.56 L 27.57,98.48 c 3.56,-15.98 10.99,-30.11 22.08,-42 2.76,-2.96 5.83,-5.83 9.12,-8.51 0.73,-0.63 1.49,-1.24 2.28,-1.8 2.14,-1.64 4.21,-3.1 6.32,-4.45 L 98.79,19.6 c 2.58,-2.03 5.3,-3.94 8.09,-5.69 0.76,-0.51 1.54,-0.98 2.35,-1.41 5.73,-3.35 11.82,-6.07 18.1,-8.1 15.45,-5.01 31.39,-5.74 47.37,-2.18 L 288.78,27.6 c 16.26,3.62 30.51,11.13 42.36,22.32 11.25,10.63 19.41,23.51 24.27,38.29 l 0.13,0.41 c 5,15.47 5.74,31.41 2.18,47.37 l -25.38,114.08 c -3.58,16.07 -11.06,30.22 -22.24,42.07 -3.97,4.19 -8.35,8.03 -13.05,11.45 -0.37,0.29 -0.76,0.58 -1.15,0.85 l -36.75,25.88 c -1.49,1.11 -2.92,2.12 -4.34,3.05 -0.36,0.24 -0.68,0.46 -1,0.66 -6.27,4.02 -13.06,7.29 -20.19,9.74 -9.34,3.19 -18.88,4.79 -28.54,4.79 z M 88.08,82.73 87.8,82.96 c -1.8,1.45 -3.45,2.98 -4.9,4.53 -5.5,5.89 -9.18,12.91 -10.95,20.87 L 46.57,222.44 c -1.77,7.97 -1.4,15.84 1.1,23.41 2.48,7.51 6.69,14.12 12.5,19.66 5.95,5.67 12.77,9.3 20.85,11.1 l 114.08,25.38 c 8.27,1.84 16.05,1.45 23.79,-1.21 3.68,-1.26 7.2,-2.96 10.43,-5.03 l 0.4,-0.27 c 0.76,-0.5 1.56,-1.06 2.45,-1.73 l 0.56,-0.41 37.34,-26.33 c 2.54,-1.82 4.9,-3.88 7.01,-6.1 5.54,-5.86 9.11,-12.65 10.91,-20.72 l 25.38,-114.08 c 1.75,-7.88 1.42,-15.73 -1,-23.32 l -0.08,-0.26 c -2.47,-7.59 -6.62,-14.18 -12.36,-19.6 -5.8,-5.48 -12.87,-9.18 -21.01,-10.99 L 164.84,46.56 c -7.96,-1.77 -15.87,-1.41 -23.51,1.06 -3.28,1.06 -6.46,2.5 -9.45,4.27 l -0.66,0.39 c -1.6,0.98 -3.14,2.06 -4.58,3.23 l -1.14,0.86 -33.39,23.47 c -1.16,0.73 -2.35,1.57 -3.63,2.56 l -0.41,0.32 z"
             id="path4" />
        </g>
        <path
           class="cls-5"
           d="m 333.92,95.61 c 0,0 -0.02,-0.06 -0.03,-0.09 C 330.24,84.28 324.06,74.49 315.53,66.43 306.71,58.09 296.05,52.49 283.85,49.77 L 169.77,24.39 c -11.97,-2.66 -23.9,-2.12 -35.44,1.62 -4.87,1.57 -9.59,3.71 -14.04,6.34 -0.31,0.15 -0.62,0.33 -0.91,0.54 l -0.06,0.04 c -2.4,1.48 -4.72,3.11 -6.9,4.86 l -32.4,22.82 c -1.81,1.14 -3.6,2.4 -5.46,3.84 l -0.27,0.19 c -0.27,0.19 -0.52,0.4 -0.76,0.62 -2.64,2.12 -5.08,4.38 -7.26,6.72 -8.29,8.88 -13.85,19.45 -16.51,31.42 L 24.38,217.48 c -2.68,12.02 -2.1,23.96 1.71,35.48 3.66,11.08 9.85,20.82 18.39,28.97 8.91,8.49 19.54,14.15 31.6,16.83 l 114.08,25.38 c 12.29,2.73 24.43,2.1 36.08,-1.88 5.46,-1.87 10.65,-4.38 15.43,-7.46 0.13,-0.08 0.26,-0.16 0.38,-0.25 l 0.08,-0.06 c 1.19,-0.78 2.39,-1.63 3.67,-2.58 l 37,-26.06 c 0.17,-0.12 0.33,-0.25 0.49,-0.38 3.73,-2.67 7.18,-5.68 10.28,-8.95 8.33,-8.82 13.91,-19.39 16.59,-31.4 l 25.38,-114.08 c 2.66,-11.96 2.11,-23.88 -1.62,-35.45 z"
           id="path5" />
        <g
           id="g21">
          <g
             id="g14">
            <path
               class="cls-3"
               d="m 142.78,92 12.82,2.85 2.85,-12.82 c 1.58,-7.08 -2.89,-14.1 -9.97,-15.67 v 0 c -7.08,-1.58 -14.1,2.89 -15.67,9.97 -1.57,7.08 2.89,14.1 9.97,15.67 z"
               id="path6" />
            <path
               class="cls-3"
               d="m 105.07,211.45 c -1.58,7.08 2.89,14.1 9.97,15.67 v 0 c 7.08,1.58 14.1,-2.89 15.67,-9.97 l 2.85,-12.82 -12.82,-2.85 c -7.08,-1.58 -14.1,2.89 -15.67,9.97 z"
               id="path7" />
            <path
               class="cls-3"
               d="m 255.87,229.23 -12.82,-2.85 -2.85,12.82 c -1.58,7.08 2.89,14.1 9.97,15.67 v 0 c 7.08,1.58 14.1,-2.89 15.67,-9.97 1.57,-7.08 -2.89,-14.1 -9.97,-15.67 z"
               id="path8" />
            <path
               class="cls-3"
               d="m 293.58,109.77 c 1.58,-7.08 -2.89,-14.1 -9.97,-15.67 v 0 c -7.08,-1.58 -14.1,2.89 -15.67,9.97 l -2.85,12.82 12.82,2.85 c 7.08,1.58 14.1,-2.89 15.67,-9.97 z"
               id="path9" />
            <path
               class="cls-2"
               d="m 307.93,104.02 c -2.23,-6.9 -5.95,-12.81 -11.16,-17.73 -5.21,-4.93 -11.5,-8.21 -18.85,-9.84 L 163.84,51.07 c -7.18,-1.6 -14.21,-1.28 -21.11,0.95 -6.9,2.23 -12.82,6 -17.76,11.3 -4.95,5.3 -8.21,11.54 -9.81,18.71 L 89.78,196.11 c -1.6,7.17 -1.27,14.16 0.98,20.97 2.25,6.81 6.01,12.73 11.3,17.76 5.28,5.03 11.51,8.35 18.68,9.95 l 114.08,25.38 c 7.35,1.64 14.44,1.28 21.27,-1.05 6.82,-2.34 12.7,-6.12 17.63,-11.33 4.92,-5.21 8.18,-11.41 9.78,-18.58 l 25.38,-114.08 c 1.6,-7.18 1.28,-14.21 -0.95,-21.11 z m -39.99,0.05 c 1.58,-7.08 8.59,-11.54 15.67,-9.97 v 0 c 7.08,1.58 11.54,8.59 9.97,15.67 -1.58,7.08 -8.59,11.54 -15.67,9.97 l -12.82,-2.85 z M 148.49,66.36 v 0 c 7.08,1.58 11.54,8.59 9.97,15.67 L 155.61,94.85 142.79,92 c -7.08,-1.58 -11.54,-8.59 -9.97,-15.67 1.57,-7.08 8.59,-11.54 15.67,-9.97 z m -17.78,150.79 c -1.58,7.08 -8.59,11.54 -15.67,9.97 v 0 c -7.08,-1.58 -11.54,-8.59 -9.97,-15.67 1.58,-7.08 8.59,-11.54 15.67,-9.97 l 12.82,2.85 z m 119.45,37.72 v 0 c -7.08,-1.58 -11.54,-8.59 -9.97,-15.67 l 2.85,-12.82 12.82,2.85 c 7.08,1.58 11.54,8.59 9.97,15.67 -1.57,7.08 -8.59,11.54 -15.67,9.97 z m 14.64,-51.44 -54.46,34.63 c -18.17,11.56 -42.28,6.2 -53.84,-11.98 l -34.63,-54.46 c -11.56,-18.17 -6.2,-42.28 11.98,-53.84 l 54.46,-34.63 c 18.17,-11.56 42.28,-6.2 53.84,11.98 l 34.63,54.46 c 11.56,18.17 6.2,42.28 -11.98,53.84 z"
               id="path10" />
            <path
               class="cls-4"
               d="m 202.85,176.64 c -2.94,-4.6 -9.05,-5.96 -13.67,-3.04 l -12.81,8.11 c -2.23,1.41 -3.8,3.65 -4.38,6.23 l -5.01,22.5 c -1.19,5.35 2.18,10.65 7.53,11.84 l 20.97,4.67 c 5.35,1.19 10.65,-2.18 11.84,-7.53 l 5.01,-22.5 c 0.57,-2.58 0.1,-5.27 -1.32,-7.5 l -8.16,-12.77 z"
               id="path11" />
            <path
               class="cls-4"
               d="m 195.56,144.69 c 2.94,4.68 9.13,6.05 13.77,3.06 l 12.84,-8.27 c 2.2,-1.41 3.75,-3.64 4.31,-6.19 l 5.02,-22.55 c 1.19,-5.35 -2.18,-10.65 -7.53,-11.84 L 203,94.23 c -5.35,-1.19 -10.65,2.18 -11.84,7.53 l -5.02,22.55 c -0.57,2.55 -0.11,5.22 1.28,7.43 l 8.13,12.94 z"
               id="path12" />
            <path
               class="cls-1"
               d="m 186.25,150.53 -8.11,-12.81 c -1.41,-2.23 -3.65,-3.8 -6.23,-4.38 l -22.5,-5.01 c -5.35,-1.19 -10.65,2.18 -11.84,7.53 l -4.67,20.97 c -1.19,5.35 2.18,10.65 7.53,11.84 l 22.5,5.01 c 2.58,0.57 5.27,0.1 7.5,-1.32 l 12.77,-8.16 c 4.6,-2.94 5.96,-9.05 3.04,-13.67 z"
               id="path13" />
            <path
               class="cls-1"
               d="m 258.06,152.51 -22.55,-5.02 c -2.55,-0.57 -5.22,-0.11 -7.43,1.28 l -12.94,8.13 c -4.68,2.94 -6.05,9.13 -3.06,13.77 l 8.27,12.84 c 1.41,2.2 3.64,3.75 6.19,4.31 l 22.55,5.02 c 5.35,1.19 10.65,-2.18 11.84,-7.53 l 4.67,-20.97 c 1.19,-5.35 -2.18,-10.65 -7.53,-11.84 z"
               id="path14" />
          </g>
          <circle
             class="cls-5"
             cx="288.51999"
             cy="137.97"
             r="5.6500001"
             id="circle14" />
          <circle
             class="cls-5"
             cx="255.00999"
             cy="88.139999"
             r="5.6500001"
             id="circle15" />
          <circle
             class="cls-5"
             cx="268.97"
             cy="216.87"
             r="5.6500001"
             id="circle16" />
          <circle
             class="cls-5"
             cx="219.14"
             cy="250.39"
             r="5.6500001"
             id="circle17" />
          <circle
             class="cls-5"
             cx="144.84"
             cy="231.73"
             r="5.6500001"
             id="circle18" />
          <circle
             class="cls-5"
             cx="111.32"
             cy="181.89999"
             r="5.6500001"
             id="circle19" />
          <circle
             class="cls-5"
             cx="126.75"
             cy="108.18"
             r="5.6500001"
             id="circle20" />
          <circle
             class="cls-5"
             cx="176.58"
             cy="74.669998"
             r="5.6500001"
             id="circle21" />
        </g>
      </g>
    </g>
  </g>
</svg>
