<?xml version="1.0" encoding="UTF-8" standalone="no"?>
<!-- Created with Inkscape (http://www.inkscape.org/) -->

<svg
   width="210.21831mm"
   height="67.034515mm"
   id="svg4709"
   version="1.1"
   viewBox="0 0 744.86802 237.52387"
   xml:space="preserve"
   sodipodi:docname="lage2_2014_orange.svg"
   xmlns:inkscape="http://www.inkscape.org/namespaces/inkscape"
   xmlns:sodipodi="http://sodipodi.sourceforge.net/DTD/sodipodi-0.dtd"
   xmlns="http://www.w3.org/2000/svg"
   xmlns:svg="http://www.w3.org/2000/svg"
   xmlns:rdf="http://www.w3.org/1999/02/22-rdf-syntax-ns#"
   xmlns:cc="http://creativecommons.org/ns#"
   xmlns:dc="http://purl.org/dc/elements/1.1/"><sodipodi:namedview
     id="namedview1"
     pagecolor="#ffffff"
     bordercolor="#000000"
     borderopacity="0.25"
     inkscape:showpageshadow="2"
     inkscape:pageopacity="0.0"
     inkscape:pagecheckerboard="0"
     inkscape:deskcolor="#d1d1d1"
     inkscape:document-units="mm"><inkscape:page
       x="0"
       y="0"
       width="744.86804"
       height="237.52388"
       id="page2"
       margin="0"
       bleed="0" /></sodipodi:namedview><defs
     id="defs4711" /><metadata
     id="metadata4715"><rdf:RDF><cc:Work
         rdf:about=""><dc:format>image/svg+xml</dc:format><dc:type
           rdf:resource="http://purl.org/dc/dcmitype/StillImage" /></cc:Work></rdf:RDF></metadata><g
     id="layer1"
     transform="translate(-169.85611,-217.95106)"><g
       style="font-style:normal;font-weight:normal;font-size:104.537px;line-height:125%;font-family:Sans;letter-spacing:0px;word-spacing:0px;fill:#ff8700;fill-opacity:1;stroke:none"
       id="text4580-6"
       transform="translate(15.949897,-523.92547)"><path
         id="path3190"
         style="line-height:125%;font-family:'Klavika Bold';-inkscape-font-specification:'Klavika Bold';fill:#ff8700;fill-opacity:1"
         d="m 862.11651,798.05154 c 3.11346,-3.7239 5.35388,-6.7064 6.72128,-8.9475 1.36731,-2.24104 2.20618,-4.39499 2.5166,-6.46188 0.31034,-2.0668 0.43682,-4.70085 0.37943,-7.90215 -4e-5,-0.1524 -4e-5,-0.60539 0,-1.35897 -4e-5,-0.75348 -4e-5,-1.20647 0,-1.35896 0.0653,-5.66885 -1.68568,-9.82851 -5.25293,-12.47899 -3.56733,-2.65036 -9.34294,-3.96141 -17.32684,-3.93317 -3.07948,0.009 -6.35494,0.2527 -9.82639,0.73175 -3.47148,0.47919 -6.85147,1.14125 -10.13999,1.98619 l 1.98618,12.64886 c 2.37165,-0.58579 5.18106,-1.06056 8.42822,-1.42431 3.24713,-0.36364 6.1872,-0.55094 8.82022,-0.56188 2.90521,-0.0239 5.01335,0.33762 6.32443,1.08456 1.31102,0.74705 1.95566,2.02326 1.93392,3.82863 v 1.88165 c 0.049,2.26112 -0.17684,4.12728 -0.67755,5.59848 -0.50077,1.47129 -1.57065,3.19807 -3.20964,5.18034 -1.63905,1.98235 -4.14146,4.87064 -7.50724,8.66488 -2.90524,3.29727 -5.27472,5.90195 -7.10845,7.81407 -1.83374,1.91216 -4.51683,4.67365 -8.04927,8.28448 v 12.85793 h 42.23255 v -13.17154 h -21.42988 c 1.47872,-1.57892 3.09467,-3.38652 4.84785,-5.42281 1.75313,-2.03625 3.86562,-4.54947 6.3375,-7.53966 z m 36.65778,-6.17501 c 0,27.61423 -22.38576,49.99999 -50,49.99999 -27.61423,0 -50,-22.38576 -50,-49.99999 0,-27.61424 22.38577,-50 50,-50 27.61424,0 50,22.38576 50,50 z" /></g><g
       transform="translate(140.90277,537.94363)"
       id="g4267-1-7-7"
       style="fill:#ff8700;fill-opacity:1"><path
         id="path4264-2-1-6"
         d="m 565.34375,-282.46875 v 100 100 l 40,-20 60,-30 2.84375,-1.40625 -17.875,-35.78125 -44.96875,22.46875 V -217.75 l 44.875,22.4375 17.875,-35.78125 -2.75,-1.375 -60,-29.96875 v -0.0312 l -40,-20 z"
         style="fill:#ff8700;fill-opacity:1;stroke:none" /><rect
         transform="rotate(-90)"
         y="565.33337"
         x="172.46875"
         height="70"
         width="20"
         id="rect3819-7-0-4-8-3-1-1"
         style="fill:#ff8700;fill-opacity:1;stroke:none" /></g><path
       style="fill:#ff8700;fill-opacity:1;fill-rule:nonzero;stroke:none"
       d="m 411.04341,255.47491 -50,100 -49.96876,99.9375 0.0937,0.0625 h 44.50001 l 15.5625,-31.15625 h 79.53126 l 15.5625,31.15625 h 44.71875 l -50,-100 -27.71876,-55.46874 -22.28125,-44.53126 z m -0.0312,89.21875 19.78125,39.625 h -39.5625 z"
       id="path4448-6-5-8" /><path
       style="fill:#ff8700;fill-opacity:1;fill-rule:nonzero;stroke:none"
       d="m 299.05901,455.41241 -0.0312,0.0625 h 0.125 l -0.0937,-0.0625 z"
       id="path4440-1-2-9" /><g
       id="g3018-7-2"
       transform="translate(-10.864654,132.30678)"
       style="fill:#ff8700;fill-opacity:1"><rect
         y="123.16551"
         x="180.72076"
         height="200"
         width="40"
         id="rect3819-5-6-7"
         style="fill:#ff8700;fill-opacity:1;stroke:none" /><rect
         transform="rotate(-90)"
         y="180.72076"
         x="-323.16556"
         height="130"
         width="40"
         id="rect3819-7-4-1-9"
         style="fill:#ff8700;fill-opacity:1;stroke:none" /></g><g
       id="g4666-3-5"
       transform="translate(144.33213,793.93773)"
       style="fill:#ff8700;fill-opacity:1"><path
         id="path3853-9-2-4"
         d="m 446.4375,-538.46875 c -55.22847,0 -100,44.77153 -100,100 0,55.22847 44.77153,100 100,100 55.22847,0 100,-44.77153 100,-100 0,-6.81705 -0.70027,-13.47237 -2,-19.90625 h -41.375 c 2.19151,6.23101 3.375,12.92599 3.375,19.90625 0,33.13709 -26.86291,60 -60,60 -33.13709,0 -60,-26.86291 -60,-60 0,-33.13709 26.86291,-60 60,-60 0.21977,0 0.43703,0.0289 0.65625,0.0312 v -40 c -0.22132,-10e-4 -0.43459,-0.0312 -0.65625,-0.0312 z"
         style="fill:#ff8700;fill-opacity:1;fill-rule:nonzero;stroke:none" /><rect
         transform="rotate(-90)"
         y="468.45459"
         x="418.28864"
         height="75"
         width="40"
         id="rect3819-7-0-4-1-2-3"
         style="fill:#ff8700;fill-opacity:1;stroke:none" /></g></g></svg>
