<?xml version="1.0" encoding="UTF-8" standalone="no"?>
<!-- Created with Inkscape (http://www.inkscape.org/) -->

<svg
   width="211.59236mm"
   height="92.699852mm"
   id="svg4709"
   version="1.1"
   viewBox="0 0 749.73671 328.46404"
   xml:space="preserve"
   xmlns="http://www.w3.org/2000/svg"
   xmlns:svg="http://www.w3.org/2000/svg"
   xmlns:rdf="http://www.w3.org/1999/02/22-rdf-syntax-ns#"
   xmlns:cc="http://creativecommons.org/ns#"
   xmlns:dc="http://purl.org/dc/elements/1.1/"><defs
     id="defs4711" /><metadata
     id="metadata4715"><rdf:RDF><cc:Work
         rdf:about=""><dc:format>image/svg+xml</dc:format><dc:type
           rdf:resource="http://purl.org/dc/dcmitype/StillImage" /></cc:Work></rdf:RDF></metadata><g
     id="layer1"
     transform="translate(-166.65865,-217.95104)"><g
       style="font-style:normal;font-weight:normal;font-size:104.537px;line-height:125%;font-family:Sans;letter-spacing:0px;word-spacing:0px;fill:#ff8700;fill-opacity:1;stroke:none"
       id="text4580-6"
       transform="translate(15.949897,-523.92547)"><path
         id="path3190"
         style="line-height:125%;font-family:'Klavika Bold';-inkscape-font-specification:'Klavika Bold';fill:#ff8700;fill-opacity:1"
         d="m 862.11651,798.05154 c 3.11346,-3.7239 5.35388,-6.7064 6.72128,-8.9475 1.36731,-2.24104 2.20618,-4.39499 2.5166,-6.46188 0.31034,-2.0668 0.43682,-4.70085 0.37943,-7.90215 -4e-5,-0.1524 -4e-5,-0.60539 0,-1.35897 -4e-5,-0.75348 -4e-5,-1.20647 0,-1.35896 0.0653,-5.66885 -1.68568,-9.82851 -5.25293,-12.47899 -3.56733,-2.65036 -9.34294,-3.96141 -17.32684,-3.93317 -3.07948,0.009 -6.35494,0.2527 -9.82639,0.73175 -3.47148,0.47919 -6.85147,1.14125 -10.13999,1.98619 l 1.98618,12.64886 c 2.37165,-0.58579 5.18106,-1.06056 8.42822,-1.42431 3.24713,-0.36364 6.1872,-0.55094 8.82022,-0.56188 2.90521,-0.0239 5.01335,0.33762 6.32443,1.08456 1.31102,0.74705 1.95566,2.02326 1.93392,3.82863 v 1.88165 c 0.049,2.26112 -0.17684,4.12728 -0.67755,5.59848 -0.50077,1.47129 -1.57065,3.19807 -3.20964,5.18034 -1.63905,1.98235 -4.14146,4.87064 -7.50724,8.66488 -2.90524,3.29727 -5.27472,5.90195 -7.10845,7.81407 -1.83374,1.91216 -4.51683,4.67365 -8.04927,8.28448 v 12.85793 h 42.23255 v -13.17154 h -21.42988 c 1.47872,-1.57892 3.09467,-3.38652 4.84785,-5.42281 1.75313,-2.03625 3.86562,-4.54947 6.3375,-7.53966 z m 36.65778,-6.17501 c 0,27.61423 -22.38576,49.99999 -50,49.99999 -27.61423,0 -50,-22.38576 -50,-49.99999 0,-27.61424 22.38577,-50 50,-50 27.61424,0 50,22.38576 50,50 z" /></g><g
       transform="translate(140.90277,537.94363)"
       id="g4267-1-7-7"
       style="fill:#ff8700;fill-opacity:1"><path
         id="path4264-2-1-6"
         d="m 565.34375,-282.46875 v 100 100 l 40,-20 60,-30 2.84375,-1.40625 -17.875,-35.78125 -44.96875,22.46875 V -217.75 l 44.875,22.4375 17.875,-35.78125 -2.75,-1.375 -60,-29.96875 v -0.0312 l -40,-20 z"
         style="fill:#ff8700;fill-opacity:1;stroke:none" /><rect
         transform="rotate(-90)"
         y="565.33337"
         x="172.46875"
         height="70"
         width="20"
         id="rect3819-7-0-4-8-3-1-1"
         style="fill:#ff8700;fill-opacity:1;stroke:none" /></g><path
       style="fill:#ff8700;fill-opacity:1;fill-rule:nonzero;stroke:none"
       d="m 411.04341,255.47491 -50,100 -49.96876,99.9375 0.0937,0.0625 h 44.50001 l 15.5625,-31.15625 h 79.53126 l 15.5625,31.15625 h 44.71875 l -50,-100 -27.71876,-55.46874 -22.28125,-44.53126 z m -0.0312,89.21875 19.78125,39.625 h -39.5625 z"
       id="path4448-6-5-8" /><path
       style="fill:#ff8700;fill-opacity:1;fill-rule:nonzero;stroke:none"
       d="m 299.05901,455.41241 -0.0312,0.0625 h 0.125 l -0.0937,-0.0625 z"
       id="path4440-1-2-9" /><g
       id="g3018-7-2"
       transform="translate(-10.864654,132.30678)"
       style="fill:#ff8700;fill-opacity:1"><rect
         y="123.16551"
         x="180.72076"
         height="200"
         width="40"
         id="rect3819-5-6-7"
         style="fill:#ff8700;fill-opacity:1;stroke:none" /><rect
         transform="rotate(-90)"
         y="180.72076"
         x="-323.16556"
         height="130"
         width="40"
         id="rect3819-7-4-1-9"
         style="fill:#ff8700;fill-opacity:1;stroke:none" /></g><g
       id="g4666-3-5"
       transform="translate(144.33213,793.93773)"
       style="fill:#ff8700;fill-opacity:1"><path
         id="path3853-9-2-4"
         d="m 446.4375,-538.46875 c -55.22847,0 -100,44.77153 -100,100 0,55.22847 44.77153,100 100,100 55.22847,0 100,-44.77153 100,-100 0,-6.81705 -0.70027,-13.47237 -2,-19.90625 h -41.375 c 2.19151,6.23101 3.375,12.92599 3.375,19.90625 0,33.13709 -26.86291,60 -60,60 -33.13709,0 -60,-26.86291 -60,-60 0,-33.13709 26.86291,-60 60,-60 0.21977,0 0.43703,0.0289 0.65625,0.0312 v -40 c -0.22132,-10e-4 -0.43459,-0.0312 -0.65625,-0.0312 z"
         style="fill:#ff8700;fill-opacity:1;fill-rule:nonzero;stroke:none" /><rect
         transform="rotate(-90)"
         y="468.45459"
         x="418.28864"
         height="75"
         width="40"
         id="rect3819-7-0-4-1-2-3"
         style="fill:#ff8700;fill-opacity:1;stroke:none" /></g><g
       id="text3058"
       style="font-weight:bold;font-size:37.5px;line-height:0%;font-family:Klavika;-inkscape-font-specification:'Klavika, Bold';letter-spacing:0px;word-spacing:0px;fill:#ff8700"
       transform="scale(1.0570462,0.94603244)"
       aria-label="Laboratório de Apoio à Gestão de&#10;Actividades Extracurriculares dos Estudantes"><path
         style="line-height:1.25;text-align:center;text-anchor:middle"
         d="m 270.57702,530.336 v -4.9875 h -9.9 V 505.361 h -5.625 v 24.975 z m 17.40002,0 v -11.6625 c 0,-5.0625 -1.3875,-6.975 -7.725,-6.975 -2.1,0 -4.8375,0.375 -6.5625,0.9 l 0.7125,4.05 c 1.725,-0.3375 3.3375,-0.525 4.95,-0.525 2.8875,0 3.225,0.6375 3.225,2.5125 v 1.3875 h -3.9375 c -3.75,0 -5.4375,1.4625 -5.4375,5.1375 0,3.1125 1.3875,5.55 4.7625,5.55 1.2375,0 3.1125,-0.375 5.2125,-1.5375 l 0.375,1.1625 z m -5.4,-4.4625 c -0.825,0.375 -1.6125,0.6375 -2.7375,0.6375 -1.05,0 -1.4625,-0.4125 -1.4625,-1.425 0,-1.0125 0.45,-1.3125 1.6125,-1.3125 h 2.5875 z m 26.10002,-2.85 v -4.725 c 0,-4.0875 -1.575,-6.6 -5.625,-6.6 -1.9875,0 -3.7125,0.45 -5.175,1.0125 v -8.85 l -5.4,0.75 v 25.5 c 2.5125,0.4125 5.475,0.6 7.425,0.6 7.5375,0 8.775,-3.3375 8.775,-7.6875 z m -10.8,-5.625 c 1.0125,-0.525 2.2875,-1.0125 3.45,-1.0125 1.425,0 1.95,0.75 1.95,1.95 v 4.725 c 0,1.725 -0.4875,2.9625 -3.1875,2.9625 -0.75,0 -1.425,0 -2.2125,-0.075 z m 22.05002,13.3125 c 6.4875,0 8.25,-3.6375 8.25,-7.3875 v -4.2375 c 0,-3.75 -1.7625,-7.3875 -8.25,-7.3875 -6.4875,0 -8.25,3.6375 -8.25,7.3875 v 4.2375 c 0,3.75 1.7625,7.3875 8.25,7.3875 z m 0,-4.5375 c -1.95,0 -2.85,-0.975 -2.85,-2.7 v -4.5375 c 0,-1.725 0.9,-2.7 2.85,-2.7 1.95,0 2.85,0.975 2.85,2.7 v 4.5375 c 0,1.725 -0.9,2.7 -2.85,2.7 z m 22.42502,-9.375 -0.45,-5.1 c -1.4625,0.3 -3.7875,1.3875 -4.9125,2.1375 l -0.375,-1.7625 h -4.5 v 18.2625 h 5.4 v -11.1375 c 1.1625,-0.825 3.225,-1.7625 4.8375,-2.4 z m 16.91247,13.5375 v -11.6625 c 0,-5.0625 -1.3875,-6.975 -7.725,-6.975 -2.1,0 -4.8375,0.375 -6.5625,0.9 l 0.7125,4.05 c 1.725,-0.3375 3.3375,-0.525 4.95,-0.525 2.8875,0 3.225,0.6375 3.225,2.5125 v 1.3875 h -3.9375 c -3.75,0 -5.4375,1.4625 -5.4375,5.1375 0,3.1125 1.3875,5.55 4.7625,5.55 1.2375,0 3.1125,-0.375 5.2125,-1.5375 l 0.375,1.1625 z m -5.4,-4.4625 c -0.825,0.375 -1.6125,0.6375 -2.7375,0.6375 -1.05,0 -1.4625,-0.4125 -1.4625,-1.425 0,-1.0125 0.45,-1.3125 1.6125,-1.3125 h 2.5875 z m 19.91252,4.1625 -0.6375,-4.0875 c -0.7875,0.2625 -1.65,0.3375 -2.25,0.3375 -0.675,0 -1.125,-0.2625 -1.125,-1.0125 v -8.85 h 3.8625 l 0.3,-4.35 h -4.1625 v -5.1375 l -5.4,0.75 v 4.3875 h -2.475 v 4.35 h 2.475 v 9.6 c 0,3.375 2.025,4.6875 5.5125,4.6875 1.2375,0 2.7,-0.2625 3.9,-0.675 z m 10.80003,0.675 c 6.4875,0 8.25,-3.6375 8.25,-7.3875 v -4.2375 c 0,-3.75 -1.7625,-7.3875 -8.25,-7.3875 -6.4875,0 -8.25,3.6375 -8.25,7.3875 v 4.2375 c 0,3.75 1.7625,7.3875 8.25,7.3875 z m 0,-4.5375 c -1.95,0 -2.85,-0.975 -2.85,-2.7 v -4.5375 c 0,-1.725 0.9,-2.7 2.85,-2.7 1.95,0 2.85,0.975 2.85,2.7 v 4.5375 c 0,1.725 -0.9,2.7 -2.85,2.7 z m -0.675,-15.975 c 2.1,-1.1625 3.5625,-2.0625 5.8125,-3.525 l -2.025,-3.15 c -1.9875,1.4625 -3.825,2.6625 -5.6625,3.825 z m 23.10001,6.6 -0.45,-5.1 c -1.4625,0.3 -3.7875,1.3875 -4.9125,2.1375 l -0.375,-1.7625 h -4.5 v 18.2625 h 5.4 v -11.1375 c 1.1625,-0.825 3.225,-1.7625 4.8375,-2.4 z m 8.09997,-7.0125 v -5.7375 h -5.4 v 5.7375 z m 0,20.55 v -18.2625 h -5.4 v 18.2625 z m 12.18751,0.375 c 6.4875,0 8.25,-3.6375 8.25,-7.3875 v -4.2375 c 0,-3.75 -1.7625,-7.3875 -8.25,-7.3875 -6.4875,0 -8.25,3.6375 -8.25,7.3875 v 4.2375 c 0,3.75 1.7625,7.3875 8.25,7.3875 z m 0,-4.5375 c -1.95,0 -2.85,-0.975 -2.85,-2.7 v -4.5375 c 0,-1.725 0.9,-2.7 2.85,-2.7 1.95,0 2.85,0.975 2.85,2.7 v 4.5375 c 0,1.725 -0.9,2.7 -2.85,2.7 z m 19.12499,-2.2125 c 0,4.4625 2.0625,6.75 5.775,6.75 1.9875,0 4.35,-1.0125 5.625,-1.8375 l 0.5625,1.4625 h 4.2375 v -26.475 l -5.4,0.75 v 7.6125 c -1.2375,-0.3 -3.15,-0.525 -4.65,-0.525 -4.275,0 -6.15,2.4375 -6.15,6.75 z m 10.8,0.6375 c -0.7875,0.675 -2.2125,1.425 -3.45,1.425 -1.425,0 -1.95,-0.7875 -1.95,-2.0625 v -5.5125 c 0,-1.2 0.525,-2.0625 1.95,-2.0625 1.125,0 2.5125,0.225 3.45,0.45 z m 24.56252,-1.5 v -3.825 c 0,-3.975 -1.3125,-7.575 -7.3875,-7.575 -6.075,0 -7.8375,3.375 -7.8375,7.3125 v 4.275 c 0,4.5 2.25,7.425 8.175,7.425 2.55,0 5.2125,-0.5625 6.8625,-1.1625 l -0.7875,-4.05 c -1.6125,0.4875 -3.8625,0.7875 -5.55,0.7875 -2.475,0 -3.3,-0.5625 -3.3,-2.6625 v -0.525 z m -5.1,-4.05 h -4.725 v -0.7875 c 0,-1.275 0.6,-2.325 2.475,-2.325 1.875,0 2.25,1.05 2.25,2.325 z m 29.96246,-13.6875 h -7.5 l -7.6125,24.975 h 5.85 l 1.35,-4.875 h 8.3625 l 1.35,4.875 h 5.85 z m -3.75,4.95 2.85,10.4625 h -5.7375 z m 30.41255,8.1375 c 0,-4.4625 -2.0625,-6.75 -5.775,-6.75 -1.9875,0 -4.35,1.0125 -5.625,1.8375 l -0.5625,-1.4625 h -4.2375 v 26.4 l 5.4,-0.75 v -7.5375 c 1.2375,0.3 3.15,0.525 4.65,0.525 4.275,0 6.15,-2.4375 6.15,-6.75 z m -10.8,-0.6375 c 0.7875,-0.675 2.2125,-1.425 3.45,-1.425 1.425,0 1.95,0.7875 1.95,2.0625 v 5.5125 c 0,1.2 -0.525,2.0625 -1.95,2.0625 -1.125,0 -2.5125,-0.225 -3.45,-0.45 z m 22.05001,12.9 c 6.4875,0 8.25,-3.6375 8.25,-7.3875 v -4.2375 c 0,-3.75 -1.7625,-7.3875 -8.25,-7.3875 -6.4875,0 -8.25,3.6375 -8.25,7.3875 v 4.2375 c 0,3.75 1.7625,7.3875 8.25,7.3875 z m 0,-4.5375 c -1.95,0 -2.85,-0.975 -2.85,-2.7 v -4.5375 c 0,-1.725 0.9,-2.7 2.85,-2.7 1.95,0 2.85,0.975 2.85,2.7 v 4.5375 c 0,1.725 -0.9,2.7 -2.85,2.7 z m 17.58753,-16.3875 v -5.7375 h -5.4 v 5.7375 z m 0,20.55 v -18.2625 h -5.4 v 18.2625 z m 12.18749,0.375 c 6.4875,0 8.25,-3.6375 8.25,-7.3875 v -4.2375 c 0,-3.75 -1.7625,-7.3875 -8.25,-7.3875 -6.4875,0 -8.25,3.6375 -8.25,7.3875 v 4.2375 c 0,3.75 1.7625,7.3875 8.25,7.3875 z m 0,-4.5375 c -1.95,0 -2.85,-0.975 -2.85,-2.7 v -4.5375 c 0,-1.725 0.9,-2.7 2.85,-2.7 1.95,0 2.85,0.975 2.85,2.7 v 4.5375 c 0,1.725 -0.9,2.7 -2.85,2.7 z m 34.275,4.1625 v -11.6625 c 0,-5.0625 -1.3875,-6.975 -7.725,-6.975 -2.1,0 -4.8375,0.375 -6.5625,0.9 l 0.7125,4.05 c 1.725,-0.3375 3.3375,-0.525 4.95,-0.525 2.8875,0 3.225,0.6375 3.225,2.5125 v 1.3875 h -3.9375 c -3.75,0 -5.4375,1.4625 -5.4375,5.1375 0,3.1125 1.3875,5.55 4.7625,5.55 1.2375,0 3.1125,-0.375 5.2125,-1.5375 l 0.375,1.1625 z m -5.4,-4.4625 c -0.825,0.375 -1.6125,0.6375 -2.7375,0.6375 -1.05,0 -1.4625,-0.4125 -1.4625,-1.425 0,-1.0125 0.45,-1.3125 1.6125,-1.3125 h 2.5875 z m 0.8625,-18.525 c -1.8375,-1.1625 -3.675,-2.3625 -5.6625,-3.825 l -2.025,3.15 c 2.25,1.4625 3.7125,2.3625 5.8125,3.525 z m 34.12497,22.1625 v -11.7375 h -5.2875 v 7.65 c -1.4625,0.1875 -2.2125,0.225 -3.3375,0.225 -2.8125,0 -3.525,-1.6125 -3.525,-3.5625 v -8.5875 c 0,-1.95 0.7125,-3.4125 3.525,-3.4125 1.8,0 5.1375,0.2625 7.3125,0.6 l 0.675,-4.9125 c -2.1375,-0.4125 -5.1,-0.7875 -7.9875,-0.7875 -6.075,0 -9.15,3.0375 -9.15,7.65 v 10.425 c 0,4.5375 3.075,7.65 9.15,7.65 2.8875,0 5.8875,-0.4125 8.625,-1.2 z m 18.97499,-6.4125 v -3.825 c 0,-3.975 -1.3125,-7.575 -7.3875,-7.575 -6.075,0 -7.8375,3.375 -7.8375,7.3125 v 4.275 c 0,4.5 2.25,7.425 8.175,7.425 2.55,0 5.2125,-0.5625 6.8625,-1.1625 l -0.7875,-4.05 c -1.6125,0.4875 -3.8625,0.7875 -5.55,0.7875 -2.475,0 -3.3,-0.5625 -3.3,-2.6625 v -0.525 z m -5.1,-4.05 h -4.725 v -0.7875 c 0,-1.275 0.6,-2.325 2.475,-2.325 1.875,0 2.25,1.05 2.25,2.325 z m 21.52501,5.85 c 0,-3.6375 -0.375,-4.7625 -5.5875,-5.925 -2.175,-0.4875 -2.325,-0.6375 -2.325,-1.7625 0,-0.825 0.375,-1.2375 1.95,-1.2375 1.425,0 3.4125,0.225 5.025,0.525 l 0.4875,-4.2 c -1.6125,-0.4125 -4.1625,-0.6 -5.55,-0.6 -5.475,0 -6.975,1.6125 -6.975,5.475 0,3.4125 0.4125,4.6125 4.8375,5.7 2.925,0.7125 2.9625,0.8625 2.9625,2.025 0,1.0875 -0.2625,1.5375 -1.875,1.5375 -2.025,0 -4.0125,-0.375 -5.5125,-0.825 l -0.8625,4.0125 c 1.8,0.6 4.65,1.0875 6.6375,1.0875 5.2125,0 6.7875,-2.0625 6.7875,-5.8125 z m 13.83756,5.1375 -0.6375,-4.0875 c -0.7875,0.2625 -1.65,0.3375 -2.25,0.3375 -0.675,0 -1.125,-0.2625 -1.125,-1.0125 v -8.85 h 3.8625 l 0.3,-4.35 h -4.1625 v -5.1375 l -5.4,0.75 v 4.3875 h -2.475 v 4.35 h 2.475 v 9.6 c 0,3.375 2.025,4.6875 5.5125,4.6875 1.2375,0 2.7,-0.2625 3.9,-0.675 z m 17.7,0.3 v -11.6625 c 0,-5.0625 -1.3875,-6.975 -7.725,-6.975 -2.1,0 -4.8375,0.375 -6.5625,0.9 l 0.7125,4.05 c 1.725,-0.3375 3.3375,-0.525 4.95,-0.525 2.8875,0 3.225,0.6375 3.225,2.5125 v 1.3875 h -3.9375 c -3.75,0 -5.4375,1.4625 -5.4375,5.1375 0,3.1125 1.3875,5.55 4.7625,5.55 1.2375,0 3.1125,-0.375 5.2125,-1.5375 l 0.375,1.1625 z m -5.4,-4.4625 c -0.825,0.375 -1.6125,0.6375 -2.7375,0.6375 -1.05,0 -1.4625,-0.4125 -1.4625,-1.425 0,-1.0125 0.45,-1.3125 1.6125,-1.3125 h 2.5875 z m 0.375,-16.0125 c 1.95,0 3.3375,-1.35 3.975,-3.6 l -2.55,-1.1625 c -0.225,1.0125 -0.6,1.5375 -1.425,1.5375 -0.525,0 -1.05,-0.3 -1.9125,-0.8625 -0.9,-0.6 -1.5375,-0.7875 -2.4375,-0.7875 -1.725,0 -3.075,1.575 -3.9375,3.2625 l 2.175,1.6875 c 0.45,-0.675 1.0125,-1.6875 1.875,-1.6875 0.6375,0 1.05,0.3375 1.725,0.825 0.75,0.525 1.425,0.7875 2.5125,0.7875 z m 16.83752,20.85 c 6.4875,0 8.25,-3.6375 8.25,-7.3875 v -4.2375 c 0,-3.75 -1.7625,-7.3875 -8.25,-7.3875 -6.4875,0 -8.25,3.6375 -8.25,7.3875 v 4.2375 c 0,3.75 1.7625,7.3875 8.25,7.3875 z m 0,-4.5375 c -1.95,0 -2.85,-0.975 -2.85,-2.7 v -4.5375 c 0,-1.725 0.9,-2.7 2.85,-2.7 1.95,0 2.85,0.975 2.85,2.7 v 4.5375 c 0,1.725 -0.9,2.7 -2.85,2.7 z m 19.125,-2.2125 c 0,4.4625 2.0625,6.75 5.775,6.75 1.9875,0 4.35,-1.0125 5.625,-1.8375 l 0.5625,1.4625 h 4.2375 v -26.475 l -5.4,0.75 v 7.6125 c -1.2375,-0.3 -3.15,-0.525 -4.65,-0.525 -4.275,0 -6.15,2.4375 -6.15,6.75 z m 10.8,0.6375 c -0.7875,0.675 -2.2125,1.425 -3.45,1.425 -1.425,0 -1.95,-0.7875 -1.95,-2.0625 v -5.5125 c 0,-1.2 0.525,-2.0625 1.95,-2.0625 1.125,0 2.5125,0.225 3.45,0.45 z m 24.56251,-1.5 v -3.825 c 0,-3.975 -1.3125,-7.575 -7.3875,-7.575 -6.075,0 -7.8375,3.375 -7.8375,7.3125 v 4.275 c 0,4.5 2.25,7.425 8.175,7.425 2.55,0 5.2125,-0.5625 6.8625,-1.1625 l -0.7875,-4.05 c -1.6125,0.4875 -3.8625,0.7875 -5.55,0.7875 -2.475,0 -3.3,-0.5625 -3.3,-2.6625 v -0.525 z m -5.1,-4.05 h -4.725 v -0.7875 c 0,-1.275 0.6,-2.325 2.475,-2.325 1.875,0 2.25,1.05 2.25,2.325 z"
         id="path1" /><path
         style="line-height:1.25;text-align:center;text-anchor:middle"
         d="m 172.77699,552.236 h -7.5 l -7.6125,24.975 h 5.85 l 1.35,-4.875 h 8.3625 l 1.35,4.875 h 5.85 z m -3.75,4.95 2.85,10.4625 h -5.7375 z m 18.48753,8.7375 c 0,-1.875 0.7875,-2.7375 2.9625,-2.7375 1.05,0 2.625,0.1875 3.75,0.45 l 0.675,-4.5 c -1.8375,-0.4125 -3.15,-0.5625 -4.425,-0.5625 -5.925,0 -8.3625,2.2125 -8.3625,7.425 v 4.1625 c 0,5.2125 2.4375,7.425 8.3625,7.425 1.275,0 2.5875,-0.15 4.425,-0.5625 l -0.675,-4.5 c -1.3125,0.3 -2.3625,0.45 -3.75,0.45 -2.175,0 -2.9625,-0.8625 -2.9625,-2.7375 z m 21.03754,10.9875 -0.6375,-4.0875 c -0.7875,0.2625 -1.65,0.3375 -2.25,0.3375 -0.675,0 -1.125,-0.2625 -1.125,-1.0125 v -8.85 h 3.8625 l 0.3,-4.35 h -4.1625 v -5.1375 l -5.4,0.75 v 4.3875 h -2.475 v 4.35 h 2.475 v 9.6 c 0,3.375 2.025,4.6875 5.5125,4.6875 1.2375,0 2.7,-0.2625 3.9,-0.675 z m 8.88752,-20.25 v -5.7375 h -5.4 v 5.7375 z m 0,20.55 v -18.2625 h -5.4 v 18.2625 z m 21,-18.2625 h -5.475 l -3.7125,12.9375 -3.7125,-12.9375 h -5.475 l 5.7375,18.2625 h 6.9 z m 8.025,-2.2875 v -5.7375 h -5.4 v 5.7375 z m 0,20.55 v -18.2625 h -5.4 v 18.2625 z m 3.93751,-6.375 c 0,4.4625 2.0625,6.75 5.775,6.75 1.9875,0 4.35,-1.0125 5.625,-1.8375 l 0.5625,1.4625 h 4.2375 v -26.475 l -5.4,0.75 v 7.6125 c -1.2375,-0.3 -3.15,-0.525 -4.65,-0.525 -4.275,0 -6.15,2.4375 -6.15,6.75 z m 10.8,0.6375 c -0.7875,0.675 -2.2125,1.425 -3.45,1.425 -1.425,0 -1.95,-0.7875 -1.95,-2.0625 v -5.5125 c 0,-1.2 0.525,-2.0625 1.95,-2.0625 1.125,0 2.5125,0.225 3.45,0.45 z m 24.48752,5.7375 v -11.6625 c 0,-5.0625 -1.3875,-6.975 -7.725,-6.975 -2.1,0 -4.8375,0.375 -6.5625,0.9 l 0.7125,4.05 c 1.725,-0.3375 3.3375,-0.525 4.95,-0.525 2.8875,0 3.225,0.6375 3.225,2.5125 v 1.3875 h -3.9375 c -3.75,0 -5.4375,1.4625 -5.4375,5.1375 0,3.1125 1.3875,5.55 4.7625,5.55 1.2375,0 3.1125,-0.375 5.2125,-1.5375 l 0.375,1.1625 z m -5.4,-4.4625 c -0.825,0.375 -1.6125,0.6375 -2.7375,0.6375 -1.05,0 -1.4625,-0.4125 -1.4625,-1.425 0,-1.0125 0.45,-1.3125 1.6125,-1.3125 h 2.5875 z m 8.96252,-1.9125 c 0,4.4625 2.0625,6.75 5.775,6.75 1.9875,0 4.35,-1.0125 5.625,-1.8375 l 0.5625,1.4625 h 4.2375 v -26.475 l -5.4,0.75 v 7.6125 c -1.2375,-0.3 -3.15,-0.525 -4.65,-0.525 -4.275,0 -6.15,2.4375 -6.15,6.75 z m 10.8,0.6375 c -0.7875,0.675 -2.2125,1.425 -3.45,1.425 -1.425,0 -1.95,-0.7875 -1.95,-2.0625 v -5.5125 c 0,-1.2 0.525,-2.0625 1.95,-2.0625 1.125,0 2.5125,0.225 3.45,0.45 z m 24.56253,-1.5 v -3.825 c 0,-3.975 -1.3125,-7.575 -7.3875,-7.575 -6.075,0 -7.8375,3.375 -7.8375,7.3125 v 4.275 c 0,4.5 2.25,7.425 8.175,7.425 2.55,0 5.2125,-0.5625 6.8625,-1.1625 l -0.7875,-4.05 c -1.6125,0.4875 -3.8625,0.7875 -5.55,0.7875 -2.475,0 -3.3,-0.5625 -3.3,-2.6625 v -0.525 z m -5.1,-4.05 h -4.725 v -0.7875 c 0,-1.275 0.6,-2.325 2.475,-2.325 1.875,0 2.25,1.05 2.25,2.325 z m 21.52499,5.85 c 0,-3.6375 -0.375,-4.7625 -5.5875,-5.925 -2.175,-0.4875 -2.325,-0.6375 -2.325,-1.7625 0,-0.825 0.375,-1.2375 1.95,-1.2375 1.425,0 3.4125,0.225 5.025,0.525 l 0.4875,-4.2 c -1.6125,-0.4125 -4.1625,-0.6 -5.55,-0.6 -5.475,0 -6.975,1.6125 -6.975,5.475 0,3.4125 0.4125,4.6125 4.8375,5.7 2.925,0.7125 2.9625,0.8625 2.9625,2.025 0,1.0875 -0.2625,1.5375 -1.875,1.5375 -2.025,0 -4.0125,-0.375 -5.5125,-0.825 l -0.8625,4.0125 c 1.8,0.6 4.65,1.0875 6.6375,1.0875 5.2125,0 6.7875,-2.0625 6.7875,-5.8125 z m 27.33749,5.4375 v -4.9875 h -10.0875 v -5.4375 h 9.3 v -4.9875 h -9.3 v -4.575 h 10.0875 v -4.9875 h -15.7125 v 24.975 z m 19.79999,-18.2625 h -5.325 l -3.1875,4.9875 -3.1875,-4.9875 h -5.325 l 5.6625,9.075 -5.8125,9.1875 h 5.4375 l 3.225,-5.0625 3.225,5.0625 h 5.4375 l -5.8125,-9.1875 z m 13.16252,17.9625 -0.6375,-4.0875 c -0.7875,0.2625 -1.65,0.3375 -2.25,0.3375 -0.675,0 -1.125,-0.2625 -1.125,-1.0125 v -8.85 h 3.8625 l 0.3,-4.35 h -4.1625 v -5.1375 l -5.4,0.75 v 4.3875 h -2.475 v 4.35 h 2.475 v 9.6 c 0,3.375 2.025,4.6875 5.5125,4.6875 1.2375,0 2.7,-0.2625 3.9,-0.675 z m 13.72503,-13.2375 -0.45,-5.1 c -1.4625,0.3 -3.7875,1.3875 -4.9125,2.1375 l -0.375,-1.7625 h -4.5 v 18.2625 h 5.4 v -11.1375 c 1.1625,-0.825 3.225,-1.7625 4.8375,-2.4 z m 16.91247,13.5375 v -11.6625 c 0,-5.0625 -1.3875,-6.975 -7.725,-6.975 -2.1,0 -4.8375,0.375 -6.5625,0.9 l 0.7125,4.05 c 1.725,-0.3375 3.3375,-0.525 4.95,-0.525 2.8875,0 3.225,0.6375 3.225,2.5125 v 1.3875 h -3.9375 c -3.75,0 -5.4375,1.4625 -5.4375,5.1375 0,3.1125 1.3875,5.55 4.7625,5.55 1.2375,0 3.1125,-0.375 5.2125,-1.5375 l 0.375,1.1625 z m -5.4,-4.4625 c -0.825,0.375 -1.6125,0.6375 -2.7375,0.6375 -1.05,0 -1.4625,-0.4125 -1.4625,-1.425 0,-1.0125 0.45,-1.3125 1.6125,-1.3125 h 2.5875 z m 14.17502,-6.825 c 0,-1.875 0.7875,-2.7375 2.9625,-2.7375 1.05,0 2.625,0.1875 3.75,0.45 l 0.675,-4.5 c -1.8375,-0.4125 -3.15,-0.5625 -4.425,-0.5625 -5.925,0 -8.3625,2.2125 -8.3625,7.425 v 4.1625 c 0,5.2125 2.4375,7.425 8.3625,7.425 1.275,0 2.5875,-0.15 4.425,-0.5625 l -0.675,-4.5 c -1.3125,0.3 -2.3625,0.45 -3.75,0.45 -2.175,0 -2.9625,-0.8625 -2.9625,-2.7375 z m 10.76251,-6.975 v 12.7875 c 0,3.525 1.0875,5.85 4.2,5.85 2.1,0 5.025,-0.675 7.275,-1.7625 l 0.5625,1.3875 h 4.0125 v -18.2625 h -5.4 v 12.075 c -1.1625,0.6375 -2.9625,1.3125 -3.9375,1.3125 -0.9375,0 -1.3125,-0.4875 -1.3125,-1.3125 v -12.075 z m 31.16248,4.725 -0.45,-5.1 c -1.4625,0.3 -3.7875,1.3875 -4.9125,2.1375 l -0.375,-1.7625 h -4.5 v 18.2625 h 5.4 v -11.1375 c 1.1625,-0.825 3.225,-1.7625 4.8375,-2.4 z m 12.93747,0 -0.45,-5.1 c -1.4625,0.3 -3.7875,1.3875 -4.9125,2.1375 l -0.375,-1.7625 h -4.5 v 18.2625 h 5.4 v -11.1375 c 1.1625,-0.825 3.225,-1.7625 4.8375,-2.4 z m 8.09997,-7.0125 v -5.7375 h -5.4 v 5.7375 z m 0,20.55 v -18.2625 h -5.4 v 18.2625 z m 9.15,-11.2875 c 0,-1.875 0.7875,-2.7375 2.9625,-2.7375 1.05,0 2.625,0.1875 3.75,0.45 l 0.675,-4.5 c -1.8375,-0.4125 -3.15,-0.5625 -4.425,-0.5625 -5.925,0 -8.3625,2.2125 -8.3625,7.425 v 4.1625 c 0,5.2125 2.4375,7.425 8.3625,7.425 1.275,0 2.5875,-0.15 4.425,-0.5625 l -0.675,-4.5 c -1.3125,0.3 -2.3625,0.45 -3.75,0.45 -2.175,0 -2.9625,-0.8625 -2.9625,-2.7375 z m 10.7625,-6.975 v 12.7875 c 0,3.525 1.0875,5.85 4.2,5.85 2.1,0 5.025,-0.675 7.275,-1.7625 l 0.5625,1.3875 h 4.0125 v -18.2625 h -5.4 v 12.075 c -1.1625,0.6375 -2.9625,1.3125 -3.9375,1.3125 -0.9375,0 -1.3125,-0.4875 -1.3125,-1.3125 v -12.075 z m 26.32499,18.2625 v -26.475 l -5.4,0.75 v 25.725 z m 19.08753,0 v -11.6625 c 0,-5.0625 -1.3875,-6.975 -7.725,-6.975 -2.1,0 -4.8375,0.375 -6.5625,0.9 l 0.7125,4.05 c 1.725,-0.3375 3.3375,-0.525 4.95,-0.525 2.8875,0 3.225,0.6375 3.225,2.5125 v 1.3875 h -3.9375 c -3.75,0 -5.4375,1.4625 -5.4375,5.1375 0,3.1125 1.3875,5.55 4.7625,5.55 1.2375,0 3.1125,-0.375 5.2125,-1.5375 l 0.375,1.1625 z m -5.4,-4.4625 c -0.825,0.375 -1.6125,0.6375 -2.7375,0.6375 -1.05,0 -1.4625,-0.4125 -1.4625,-1.425 0,-1.0125 0.45,-1.3125 1.6125,-1.3125 h 2.5875 z m 20.13749,-9.075 -0.45,-5.1 c -1.4625,0.3 -3.7875,1.3875 -4.9125,2.1375 l -0.375,-1.7625 h -4.5 v 18.2625 h 5.4 v -11.1375 c 1.1625,-0.825 3.225,-1.7625 4.8375,-2.4 z m 16.9875,6.3 v -3.825 c 0,-3.975 -1.3125,-7.575 -7.3875,-7.575 -6.075,0 -7.8375,3.375 -7.8375,7.3125 v 4.275 c 0,4.5 2.25,7.425 8.175,7.425 2.55,0 5.2125,-0.5625 6.8625,-1.1625 l -0.7875,-4.05 c -1.6125,0.4875 -3.8625,0.7875 -5.55,0.7875 -2.475,0 -3.3,-0.5625 -3.3,-2.6625 v -0.525 z m -5.1,-4.05 h -4.725 v -0.7875 c 0,-1.275 0.6,-2.325 2.475,-2.325 1.875,0 2.25,1.05 2.25,2.325 z m 21.52498,5.85 c 0,-3.6375 -0.375,-4.7625 -5.5875,-5.925 -2.175,-0.4875 -2.325,-0.6375 -2.325,-1.7625 0,-0.825 0.375,-1.2375 1.95,-1.2375 1.425,0 3.4125,0.225 5.025,0.525 l 0.4875,-4.2 c -1.6125,-0.4125 -4.1625,-0.6 -5.55,-0.6 -5.475,0 -6.975,1.6125 -6.975,5.475 0,3.4125 0.4125,4.6125 4.8375,5.7 2.925,0.7125 2.9625,0.8625 2.9625,2.025 0,1.0875 -0.2625,1.5375 -1.875,1.5375 -2.025,0 -4.0125,-0.375 -5.5125,-0.825 l -0.8625,4.0125 c 1.8,0.6 4.65,1.0875 6.6375,1.0875 5.2125,0 6.7875,-2.0625 6.7875,-5.8125 z m 10.68748,-0.9375 c 0,4.4625 2.0625,6.75 5.775,6.75 1.9875,0 4.35,-1.0125 5.625,-1.8375 l 0.5625,1.4625 h 4.2375 v -26.475 l -5.4,0.75 v 7.6125 c -1.2375,-0.3 -3.15,-0.525 -4.65,-0.525 -4.275,0 -6.15,2.4375 -6.15,6.75 z m 10.8,0.6375 c -0.7875,0.675 -2.2125,1.425 -3.45,1.425 -1.425,0 -1.95,-0.7875 -1.95,-2.0625 v -5.5125 c 0,-1.2 0.525,-2.0625 1.95,-2.0625 1.125,0 2.5125,0.225 3.45,0.45 z m 17.58755,6.1125 c 6.4875,0 8.25,-3.6375 8.25,-7.3875 v -4.2375 c 0,-3.75 -1.7625,-7.3875 -8.25,-7.3875 -6.4875,0 -8.25,3.6375 -8.25,7.3875 v 4.2375 c 0,3.75 1.7625,7.3875 8.25,7.3875 z m 0,-4.5375 c -1.95,0 -2.85,-0.975 -2.85,-2.7 v -4.5375 c 0,-1.725 0.9,-2.7 2.85,-2.7 1.95,0 2.85,0.975 2.85,2.7 v 4.5375 c 0,1.725 -0.9,2.7 -2.85,2.7 z m 24.675,-1.275 c 0,-3.6375 -0.375,-4.7625 -5.5875,-5.925 -2.175,-0.4875 -2.325,-0.6375 -2.325,-1.7625 0,-0.825 0.375,-1.2375 1.95,-1.2375 1.425,0 3.4125,0.225 5.025,0.525 l 0.4875,-4.2 c -1.6125,-0.4125 -4.1625,-0.6 -5.55,-0.6 -5.475,0 -6.975,1.6125 -6.975,5.475 0,3.4125 0.4125,4.6125 4.8375,5.7 2.925,0.7125 2.9625,0.8625 2.9625,2.025 0,1.0875 -0.2625,1.5375 -1.875,1.5375 -2.025,0 -4.0125,-0.375 -5.5125,-0.825 l -0.8625,4.0125 c 1.8,0.6 4.65,1.0875 6.6375,1.0875 5.2125,0 6.7875,-2.0625 6.7875,-5.8125 z m 27.33751,5.4375 v -4.9875 h -10.0875 v -5.4375 h 9.3 v -4.9875 h -9.3 v -4.575 h 10.0875 v -4.9875 h -15.7125 v 24.975 z m 16.80003,-5.4375 c 0,-3.6375 -0.375,-4.7625 -5.5875,-5.925 -2.175,-0.4875 -2.325,-0.6375 -2.325,-1.7625 0,-0.825 0.375,-1.2375 1.95,-1.2375 1.425,0 3.4125,0.225 5.025,0.525 l 0.4875,-4.2 c -1.6125,-0.4125 -4.1625,-0.6 -5.55,-0.6 -5.475,0 -6.975,1.6125 -6.975,5.475 0,3.4125 0.4125,4.6125 4.8375,5.7 2.925,0.7125 2.9625,0.8625 2.9625,2.025 0,1.0875 -0.2625,1.5375 -1.875,1.5375 -2.025,0 -4.0125,-0.375 -5.5125,-0.825 l -0.8625,4.0125 c 1.8,0.6 4.65,1.0875 6.6375,1.0875 5.2125,0 6.7875,-2.0625 6.7875,-5.8125 z m 13.8375,5.1375 -0.6375,-4.0875 c -0.7875,0.2625 -1.65,0.3375 -2.25,0.3375 -0.675,0 -1.125,-0.2625 -1.125,-1.0125 v -8.85 h 3.8625 l 0.3,-4.35 h -4.1625 v -5.1375 l -5.4,0.75 v 4.3875 h -2.475 v 4.35 h 2.475 v 9.6 c 0,3.375 2.025,4.6875 5.5125,4.6875 1.2375,0 2.7,-0.2625 3.9,-0.675 z m 3.30006,-17.9625 v 12.7875 c 0,3.525 1.0875,5.85 4.2,5.85 2.1,0 5.025,-0.675 7.275,-1.7625 l 0.5625,1.3875 h 4.0125 v -18.2625 h -5.4 v 12.075 c -1.1625,0.6375 -2.9625,1.3125 -3.9375,1.3125 -0.9375,0 -1.3125,-0.4875 -1.3125,-1.3125 v -12.075 z m 19.98749,11.8875 c 0,4.4625 2.0625,6.75 5.775,6.75 1.9875,0 4.35,-1.0125 5.625,-1.8375 l 0.5625,1.4625 h 4.2375 v -26.475 l -5.4,0.75 v 7.6125 c -1.2375,-0.3 -3.15,-0.525 -4.65,-0.525 -4.275,0 -6.15,2.4375 -6.15,6.75 z m 10.8,0.6375 c -0.7875,0.675 -2.2125,1.425 -3.45,1.425 -1.425,0 -1.95,-0.7875 -1.95,-2.0625 v -5.5125 c 0,-1.2 0.525,-2.0625 1.95,-2.0625 1.125,0 2.5125,0.225 3.45,0.45 z m 24.48751,5.7375 v -11.6625 c 0,-5.0625 -1.3875,-6.975 -7.725,-6.975 -2.1,0 -4.8375,0.375 -6.5625,0.9 l 0.7125,4.05 c 1.725,-0.3375 3.3375,-0.525 4.95,-0.525 2.8875,0 3.225,0.6375 3.225,2.5125 v 1.3875 h -3.9375 c -3.75,0 -5.4375,1.4625 -5.4375,5.1375 0,3.1125 1.3875,5.55 4.7625,5.55 1.2375,0 3.1125,-0.375 5.2125,-1.5375 l 0.375,1.1625 z m -5.4,-4.4625 c -0.825,0.375 -1.6125,0.6375 -2.7375,0.6375 -1.05,0 -1.4625,-0.4125 -1.4625,-1.425 0,-1.0125 0.45,-1.3125 1.6125,-1.3125 h 2.5875 z m 25.95002,4.4625 v -12.7875 c 0,-3.525 -1.0875,-5.85 -4.2,-5.85 -2.1,0 -5.025,0.675 -7.275,1.7625 l -0.5625,-1.3875 h -4.0125 v 18.2625 h 5.4 v -12.075 c 1.1625,-0.6375 2.9625,-1.3125 3.9375,-1.3125 0.9375,0 1.3125,0.4875 1.3125,1.3125 v 12.075 z m 14.69999,-0.3 -0.6375,-4.0875 c -0.7875,0.2625 -1.65,0.3375 -2.25,0.3375 -0.675,0 -1.125,-0.2625 -1.125,-1.0125 v -8.85 h 3.8625 l 0.3,-4.35 h -4.1625 v -5.1375 l -5.4,0.75 v 4.3875 h -2.475 v 4.35 h 2.475 v 9.6 c 0,3.375 2.025,4.6875 5.5125,4.6875 1.2375,0 2.7,-0.2625 3.9,-0.675 z m 17.775,-6.9375 v -3.825 c 0,-3.975 -1.3125,-7.575 -7.3875,-7.575 -6.075,0 -7.8375,3.375 -7.8375,7.3125 v 4.275 c 0,4.5 2.25,7.425 8.175,7.425 2.55,0 5.2125,-0.5625 6.8625,-1.1625 l -0.7875,-4.05 c -1.6125,0.4875 -3.8625,0.7875 -5.55,0.7875 -2.475,0 -3.3,-0.5625 -3.3,-2.6625 v -0.525 z m -5.1,-4.05 h -4.725 v -0.7875 c 0,-1.275 0.6,-2.325 2.475,-2.325 1.875,0 2.25,1.05 2.25,2.325 z m 21.52498,5.85 c 0,-3.6375 -0.375,-4.7625 -5.5875,-5.925 -2.175,-0.4875 -2.325,-0.6375 -2.325,-1.7625 0,-0.825 0.375,-1.2375 1.95,-1.2375 1.425,0 3.4125,0.225 5.025,0.525 l 0.4875,-4.2 c -1.6125,-0.4125 -4.1625,-0.6 -5.55,-0.6 -5.475,0 -6.975,1.6125 -6.975,5.475 0,3.4125 0.4125,4.6125 4.8375,5.7 2.925,0.7125 2.9625,0.8625 2.9625,2.025 0,1.0875 -0.2625,1.5375 -1.875,1.5375 -2.025,0 -4.0125,-0.375 -5.5125,-0.825 l -0.8625,4.0125 c 1.8,0.6 4.65,1.0875 6.6375,1.0875 5.2125,0 6.7875,-2.0625 6.7875,-5.8125 z"
         id="path2" /></g></g></svg>
