<?xml version="1.0" encoding="UTF-8" standalone="no"?>
<svg
   id="Layer_2"
   data-name="Layer 2"
   viewBox="0 0 981.68285 247.15"
   version="1.1"
   sodipodi:docname="Default Logo.svg"
   width="981.68286"
   height="247.14999"
   inkscape:version="1.4.4 (dcaf3e7, 2026-05-05)"
   xmlns:inkscape="http://www.inkscape.org/namespaces/inkscape"
   xmlns:sodipodi="http://sodipodi.sourceforge.net/DTD/sodipodi-0.dtd"
   xmlns:xlink="http://www.w3.org/1999/xlink"
   xmlns="http://www.w3.org/2000/svg"
   xmlns:svg="http://www.w3.org/2000/svg">
  <sodipodi:namedview
     id="namedview28"
     pagecolor="#ffffff"
     bordercolor="#000000"
     borderopacity="0.25"
     inkscape:showpageshadow="2"
     inkscape:pageopacity="0.0"
     inkscape:pagecheckerboard="0"
     inkscape:deskcolor="#d1d1d1"
     inkscape:zoom="0.4508859"
     inkscape:cx="188.51776"
     inkscape:cy="-12.198208"
     inkscape:window-width="1920"
     inkscape:window-height="1111"
     inkscape:window-x="-9"
     inkscape:window-y="-9"
     inkscape:window-maximized="1"
     inkscape:current-layer="g28" />
  <defs
     id="defs2">
    <style
       id="style1">
      .cls-1 {
        fill: #ffb404;
      }

      .cls-2 {
        fill: url(#linear-gradient-2);
      }

      .cls-3 {
        fill: #fff;
      }

      .cls-4 {
        fill: none;
      }

      .cls-5 {
        fill: url(#linear-gradient-4);
      }

      .cls-6 {
        fill: #0686f3;
      }

      .cls-7 {
        fill: url(#linear-gradient-3);
      }

      .cls-8 {
        fill: url(#linear-gradient-5);
      }

      .cls-9 {
        fill: #03037f;
      }

      .cls-10 {
        fill: url(#linear-gradient-6);
      }

      .cls-11 {
        fill: url(#linear-gradient);
      }
    </style>
    <linearGradient
       id="linear-gradient"
       x1="427.5"
       y1="181.48"
       x2="427.5"
       y2="116.15"
       gradientUnits="userSpaceOnUse">
      <stop
         offset="0"
         stop-color="#010298"
         stop-opacity="0"
         id="stop1" />
      <stop
         offset="1"
         stop-color="#010298"
         id="stop2" />
    </linearGradient>
    <linearGradient
       id="linear-gradient-2"
       x1="557.65002"
       y1="181.48"
       x2="557.65002"
       y2="116.15"
       gradientUnits="userSpaceOnUse"
       xlink:href="#linear-gradient" />
    <linearGradient
       id="linear-gradient-3"
       x1="692.07001"
       y1="181.48"
       x2="692.07001"
       y2="116.15"
       gradientUnits="userSpaceOnUse"
       xlink:href="#linear-gradient" />
    <linearGradient
       id="linear-gradient-4"
       x1="782.60999"
       y1="181.48"
       x2="782.60999"
       y2="116.15"
       gradientUnits="userSpaceOnUse"
       xlink:href="#linear-gradient" />
    <linearGradient
       id="linear-gradient-5"
       x1="866.98999"
       y1="181.48"
       x2="866.98999"
       y2="116.15"
       gradientUnits="userSpaceOnUse"
       xlink:href="#linear-gradient" />
    <linearGradient
       id="linear-gradient-6"
       x1="126.99"
       y1="181.48"
       x2="126.99"
       y2="116.15"
       gradientUnits="userSpaceOnUse"
       xlink:href="#linear-gradient" />
    <linearGradient
       inkscape:collect="always"
       xlink:href="#linear-gradient"
       id="linearGradient28"
       gradientUnits="userSpaceOnUse"
       x1="427.5"
       y1="181.48"
       x2="427.5"
       y2="116.15" />
  </defs>
  <g
     id="Layer_1-2"
     data-name="Layer 1"
     transform="translate(0.00108057,0.01)">
    <g
       id="g28">
      <path
         class="cls-3"
         d="m 981.35,180.19 -12.57,-99.4 c -2.43,-19.25 -18.9,-33.76 -38.3,-33.76 h -76.21 c -6.18,0 -12.14,1.46 -17.47,4.17 -5.34,-2.7 -11.3,-4.17 -17.39,-4.17 h -35.34 c -9.62,0 -18.79,3.55 -25.92,10.01 -0.36,0.31 -0.71,0.64 -1.05,0.98 l -0.4,0.41 c -0.23,0.22 -0.45,0.45 -0.67,0.68 l -25,25.3 c -0.27,-7.99 -3,-15.84 -7.94,-22.28 -7.26,-9.46 -18.7,-15.1 -30.62,-15.1 h -35.34 c -0.27,0 -0.55,0 -0.82,0 2.04,-9.15 0.72,-18.9 -4,-27.32 C 645.49,7.55 632.59,-0.01 618.64,-0.01 h -19.81 c -9.05,0 -17.81,3.19 -24.75,8.99 -0.28,0.22 -0.55,0.45 -0.82,0.69 l -46.55,41.8 c -5.49,-2.88 -11.65,-4.46 -17.95,-4.46 h -85.05 c -14.83,0 -29.78,3.69 -43.69,10.63 -3.24,-5.98 -7.4,-11.39 -12.44,-16.15 -8.37,-7.91 -18.43,-13.22 -29.9,-15.77 L 266.44,9.87 c -11.28,-2.51 -22.53,-1.99 -33.45,1.54 -6.55,2.12 -12.66,5.23 -18.18,9.25 -0.21,0.14 -0.41,0.28 -0.61,0.43 L 179.12,47 H 88.7 c -10.04,0 -19.48,3.81 -26.71,10.76 -0.22,0.2 -0.44,0.41 -0.66,0.63 L 38.09,81.67 c -0.2,0.2 -0.39,0.4 -0.58,0.61 C 32.94,87 29.64,92.8 27.94,99.13 l -8.29,30.93 c -1.72,6.42 -1.71,13.15 -0.1,19.48 -4.62,4.73 -7.95,10.56 -9.66,16.97 L 1.3,198.55 c -3.09,11.51 -0.6,24.04 6.66,33.49 7.26,9.46 18.7,15.1 30.62,15.1 h 65.17 c 24.78,0 50.33,-10.58 70.09,-29.02 0.07,-0.06 0.13,-0.13 0.2,-0.19 l 0.05,-0.05 c 7.39,5.79 15.84,9.77 25.19,11.85 l 71.25,15.85 c 4.65,1.03 9.35,1.56 13.98,1.56 6.85,0 13.65,-1.14 20.21,-3.38 7.88,-2.7 14.99,-6.74 21.24,-12.04 13.18,9.94 29.78,15.42 47.66,15.42 h 121.77 c 12.98,0 25.01,-6.46 32.18,-17.28 l 1.72,-2.6 h 7.45 c 6.65,11.93 19.39,19.88 33.75,19.88 h 234.24 c 12.98,0 25.01,-6.46 32.18,-17.28 l 1.72,-2.6 h 7.46 c 6.64,11.93 19.39,19.88 33.75,19.88 h 39.76 c 9.07,0 17.89,-3.22 24.84,-9.06 1.48,-1.24 2.86,-2.59 4.16,-4.07 0.04,-0.05 0.09,-0.1 0.13,-0.15 l 19.17,-19.28 c 1.49,-1.25 2.87,-2.59 4.12,-4.01 0.52,-0.59 1.03,-1.21 1.57,-1.9 0.02,-0.03 0.04,-0.06 0.06,-0.08 6.27,-8.13 9.01,-18.21 7.72,-28.4 z"
         id="path2" />
      <g
         id="g26">
        <path
           class="cls-9"
           d="m 959.49,197.76 c 3.36,-4.34 4.89,-9.85 4.19,-15.33 L 951.11,83.03 C 949.8,72.64 940.96,64.85 930.49,64.85 h -76.21 c -6.97,0 -13.48,3.5 -17.33,9.31 l -0.1,0.16 c -0.29,-0.45 -0.6,-0.9 -0.93,-1.33 -3.93,-5.13 -10.03,-8.13 -16.49,-8.13 h -35.34 c -5.46,0 -10.52,2.14 -14.28,5.7 v 0 c 0,0 -0.41,0.4 -0.41,0.4 -0.18,0.18 -0.37,0.36 -0.55,0.55 l -60.26,60.98 h -7.14 l 11.11,-41.47 c 1.67,-6.24 0.35,-12.91 -3.59,-18.03 -3.94,-5.12 -10.03,-8.13 -16.49,-8.13 h -35.34 c -7.56,0 -14.35,4.08 -18,10.4 -2.74,-4.73 -7.26,-8.25 -12.6,-9.68 l 9.85,-16.12 c 3.92,-6.42 4.07,-14.45 0.39,-21.01 -3.68,-6.56 -10.61,-10.62 -18.13,-10.62 h -19.81 c -5.09,0 -9.92,1.87 -13.66,5.13 v 0 c 0,0 -58.35,52.39 -58.35,52.39 -0.46,-0.82 -0.98,-1.61 -1.56,-2.36 -3.93,-5.13 -10.03,-8.13 -16.49,-8.13 h -85.05 c -19.28,0 -38.47,7.85 -53.78,20.57 -0.24,-3.76 -0.93,-7.5 -2.12,-11.17 0,0 0,0 0,0 -2.47,-7.64 -6.67,-14.3 -12.47,-19.78 -6,-5.67 -13.25,-9.49 -21.53,-11.33 L 262.59,27.3 c -8.14,-1.81 -16.25,-1.44 -24.09,1.1 -5,1.62 -9.57,4 -13.68,7.07 h -0.01 c 0,0 -39.8,29.39 -39.8,29.39 H 88.72 c -5.7,0 -10.95,2.33 -14.76,6.17 v -0.02 c 0,0 -23.24,23.28 -23.24,23.28 h 0.02 c -2.6,2.55 -4.57,5.78 -5.56,9.48 l -8.29,30.93 c -1.67,6.24 -0.35,12.91 3.59,18.03 0.17,0.22 0.37,0.42 0.54,0.63 l -7.99,7.96 c -2.78,2.59 -4.87,5.95 -5.91,9.82 l -8.58,32.03 c -1.67,6.24 -0.35,12.91 3.59,18.03 3.93,5.13 10.03,8.13 16.49,8.13 h 65.17 c 21.06,0 42.02,-9.37 57.93,-24.23 l 2.29,-2.2 c 3.61,-3.6 6.92,-7.49 9.88,-11.62 2.15,3.49 4.74,6.71 7.8,9.62 6.06,5.77 13.29,9.63 21.49,11.45 l 71.25,15.85 c 3.39,0.75 6.77,1.13 10.11,1.13 4.89,0 9.72,-0.81 14.43,-2.42 7.45,-2.56 13.97,-6.75 19.38,-12.47 2.63,-2.79 4.84,-5.84 6.65,-9.11 0.45,0.64 0.89,1.29 1.37,1.91 10.77,14.03 28,22.08 47.28,22.08 h 121.76 c 6.97,0 13.48,-3.5 17.33,-9.31 l 7,-10.57 h 29.94 l 0.22,1.7 c 1.31,10.39 10.15,18.18 20.62,18.18 h 234.24 c 6.97,0 13.48,-3.5 17.33,-9.31 l 7,-10.57 h 29.94 l 0.22,1.7 c 1.31,10.39 10.15,18.18 20.62,18.18 h 39.76 c 4.93,0 9.65,-1.75 13.38,-4.88 v 0 c 0.79,-0.66 1.53,-1.38 2.22,-2.16 0.13,-0.15 0.25,-0.3 0.37,-0.44 l 20.35,-20.48 c 0.98,-0.77 1.91,-1.63 2.75,-2.59 0.29,-0.33 0.57,-0.67 0.83,-1.01 v 0 c 0,0 0,0 0,0 z"
           id="path3" />
        <g
           id="g25">
          <g
             id="g13">
            <path
               class="cls-4"
               d="m 306.95,75.09 c -7.22,-11.35 -22.27,-14.7 -33.62,-7.48 l -34.01,21.63 c -11.35,7.22 -14.7,22.27 -7.48,33.62 l 21.63,34.01 c 7.22,11.35 22.27,14.7 33.62,7.48 l 34.01,-21.63 c 11.35,-7.22 14.7,-22.27 7.48,-33.62 z m -34.97,18.23 3.13,-14.08 c 0.74,-3.34 4.05,-5.45 7.39,-4.7 l 13.1,2.91 c 3.34,0.74 5.45,4.05 4.7,7.39 l -3.13,14.08 c -0.35,1.59 -1.32,2.98 -2.69,3.86 l -8.02,5.17 c -2.9,1.87 -6.77,1.01 -8.6,-1.91 l -5.07,-8.08 c -0.87,-1.38 -1.16,-3.05 -0.8,-4.64 z m -14.5,30.83 -14.05,-3.13 c -3.34,-0.74 -5.45,-4.05 -4.7,-7.39 l 2.91,-13.1 c 0.74,-3.34 4.05,-5.45 7.39,-4.7 l 14.05,3.13 c 1.61,0.36 3.01,1.34 3.89,2.73 l 5.06,8 c 1.82,2.88 0.98,6.7 -1.9,8.54 l -7.98,5.1 c -1.39,0.89 -3.07,1.18 -4.68,0.83 z m 30.86,14.5 -3.13,14.05 c -0.74,3.34 -4.05,5.45 -7.39,4.7 l -13.1,-2.91 c -3.34,-0.74 -5.45,-4.05 -4.7,-7.39 l 3.13,-14.05 c 0.36,-1.61 1.34,-3.01 2.73,-3.89 l 8,-5.06 c 2.88,-1.82 6.7,-0.98 8.54,1.9 l 5.1,7.98 c 0.89,1.39 1.18,3.07 0.83,4.68 z m 33.26,-20.33 -2.91,13.1 c -0.74,3.34 -4.05,5.45 -7.39,4.7 l -14.08,-3.13 c -1.59,-0.35 -2.98,-1.32 -3.86,-2.69 l -5.17,-8.02 c -1.87,-2.9 -1.01,-6.77 1.91,-8.6 l 8.08,-5.07 c 1.38,-0.87 3.05,-1.16 4.64,-0.8 l 14.08,3.13 c 3.34,0.74 5.45,4.05 4.7,7.39 z"
               id="path4" />
            <path
               class="cls-4"
               d="m 244.9,73.13 8.01,1.78 1.78,-8.01 c 0.98,-4.42 -1.8,-8.8 -6.22,-9.79 v 0 c -4.42,-0.98 -8.8,1.8 -9.79,6.22 -0.98,4.42 1.8,8.8 6.22,9.79 z"
               id="path5" />
            <path
               class="cls-4"
               d="m 221.34,147.73 c -0.98,4.42 1.8,8.8 6.22,9.79 v 0 c 4.42,0.98 8.8,-1.8 9.79,-6.23 l 1.78,-8.01 -8.01,-1.78 c -4.42,-0.98 -8.8,1.8 -9.79,6.22 z"
               id="path6" />
            <path
               class="cls-4"
               d="m 315.52,158.84 -8.01,-1.78 -1.78,8.01 c -0.98,4.42 1.8,8.8 6.22,9.79 v 0 c 4.42,0.98 8.8,-1.8 9.79,-6.23 0.98,-4.42 -1.8,-8.8 -6.22,-9.79 z"
               id="path7" />
            <path
               class="cls-4"
               d="m 339.08,84.23 c 0.98,-4.42 -1.8,-8.8 -6.22,-9.79 v 0 c -4.42,-0.98 -8.8,1.8 -9.79,6.22 l -1.78,8.01 8.01,1.78 c 4.42,0.98 8.8,-1.8 9.79,-6.22 z"
               id="path8" />
            <path
               class="cls-3"
               d="m 348.03,80.64 c -1.39,-4.31 -3.72,-8 -6.97,-11.07 -3.26,-3.08 -7.18,-5.12 -11.77,-6.15 L 258.04,47.57 c -4.48,-1 -8.88,-0.8 -13.18,0.59 -4.31,1.39 -8.01,3.74 -11.09,7.06 -3.09,3.31 -5.13,7.2 -6.13,11.69 l -15.85,71.25 c -1,4.48 -0.79,8.85 0.61,13.1 1.41,4.25 3.76,7.95 7.05,11.09 3.3,3.14 7.19,5.21 11.67,6.21 l 71.25,15.85 c 4.59,1.02 9.02,0.8 13.29,-0.66 4.26,-1.46 7.93,-3.82 11.01,-7.07 3.07,-3.26 5.11,-7.12 6.11,-11.6 l 15.85,-71.25 c 1,-4.48 0.8,-8.88 -0.59,-13.18 z m -24.97,0.03 c 0.98,-4.42 5.37,-7.21 9.79,-6.22 v 0 c 4.42,0.98 7.21,5.37 6.22,9.79 -0.98,4.42 -5.37,7.21 -9.79,6.22 l -8.01,-1.78 1.78,-8.01 z m -8.07,-13.48 c 1.95,0 3.53,1.58 3.53,3.53 0,1.95 -1.58,3.53 -3.53,3.53 -1.95,0 -3.53,-1.58 -3.53,-3.53 0,-1.95 1.58,-3.53 3.53,-3.53 z M 266,58.78 c 1.95,0 3.53,1.58 3.53,3.53 0,1.95 -1.58,3.53 -3.53,3.53 -1.95,0 -3.53,-1.58 -3.53,-3.53 0,-1.95 1.58,-3.53 3.53,-3.53 z m -27.33,4.56 c 0.98,-4.42 5.37,-7.21 9.79,-6.22 v 0 c 4.42,0.98 7.21,5.37 6.22,9.79 l -1.78,8.01 -8.01,-1.78 c -4.42,-0.98 -7.21,-5.37 -6.22,-9.79 z m -3.79,16.37 c 1.95,0 3.53,1.58 3.53,3.53 0,1.95 -1.58,3.53 -3.53,3.53 -1.95,0 -3.53,-1.58 -3.53,-3.53 0,-1.95 1.58,-3.53 3.53,-3.53 z m -9.63,46.04 c 1.95,0 3.53,1.58 3.53,3.53 0,1.95 -1.58,3.53 -3.53,3.53 -1.95,0 -3.53,-1.58 -3.53,-3.53 0,-1.95 1.58,-3.53 3.53,-3.53 z m 12.11,25.55 c -0.98,4.42 -5.37,7.21 -9.79,6.23 v 0 c -4.42,-0.98 -7.21,-5.37 -6.22,-9.79 0.98,-4.42 5.37,-7.21 9.79,-6.22 l 8.01,1.78 -1.78,8.01 z m 8.82,12.63 c -1.95,0 -3.53,-1.58 -3.53,-3.53 0,-1.95 1.58,-3.53 3.53,-3.53 1.95,0 3.53,1.58 3.53,3.53 0,1.95 -1.58,3.53 -3.53,3.53 z m 46.4,11.65 c -1.95,0 -3.53,-1.58 -3.53,-3.53 0,-1.95 1.58,-3.53 3.53,-3.53 1.95,0 3.53,1.58 3.53,3.53 0,1.95 -1.58,3.53 -3.53,3.53 z m 29.17,-6.95 c -0.98,4.42 -5.37,7.21 -9.79,6.23 v 0 c -4.42,-0.98 -7.21,-5.37 -6.22,-9.79 l 1.78,-8.01 8.01,1.78 c 4.42,0.98 7.21,5.37 6.22,9.79 z m 1.95,-13.98 c -1.95,0 -3.53,-1.58 -3.53,-3.53 0,-1.95 1.58,-3.53 3.53,-3.53 1.95,0 3.53,1.58 3.53,3.53 0,1.95 -1.58,3.53 -3.53,3.53 z m -2.6,-11.92 -34.01,21.63 c -11.35,7.22 -26.4,3.87 -33.62,-7.48 l -21.63,-34.01 c -7.22,-11.35 -3.87,-26.4 7.48,-33.62 l 34.01,-21.63 c 11.35,-7.22 26.4,-3.87 33.62,7.48 l 21.63,34.01 c 7.22,11.35 3.87,26.4 -7.48,33.62 z m 14.82,-37.36 c -1.95,0 -3.53,-1.58 -3.53,-3.53 0,-1.95 1.58,-3.53 3.53,-3.53 1.95,0 3.53,1.58 3.53,3.53 0,1.95 -1.58,3.53 -3.53,3.53 z"
               id="path9" />
            <path
               class="cls-6"
               d="m 282.41,125.99 c -1.84,-2.87 -5.65,-3.72 -8.54,-1.9 l -8,5.06 c -1.39,0.88 -2.38,2.28 -2.73,3.89 l -3.13,14.05 c -0.74,3.34 1.36,6.65 4.7,7.39 l 13.1,2.91 c 3.34,0.74 6.65,-1.36 7.39,-4.7 l 3.13,-14.05 c 0.36,-1.61 0.06,-3.29 -0.83,-4.68 l -5.1,-7.98 z"
               id="path10" />
            <path
               class="cls-6"
               d="m 277.86,106.04 c 1.83,2.92 5.7,3.78 8.6,1.91 l 8.02,-5.17 c 1.37,-0.88 2.34,-2.27 2.69,-3.86 l 3.13,-14.08 c 0.74,-3.34 -1.36,-6.65 -4.7,-7.39 l -13.1,-2.91 c -3.34,-0.74 -6.65,1.36 -7.39,4.7 l -3.13,14.08 c -0.35,1.59 -0.07,3.26 0.8,4.64 l 5.07,8.08 z"
               id="path11" />
            <path
               class="cls-1"
               d="m 270.14,118.22 c 2.87,-1.84 3.72,-5.65 1.9,-8.54 l -5.06,-8 c -0.88,-1.39 -2.28,-2.38 -3.89,-2.73 l -14.05,-3.13 c -3.34,-0.74 -6.65,1.36 -7.39,4.7 l -2.91,13.1 c -0.74,3.34 1.36,6.65 4.7,7.39 l 14.05,3.13 c 1.61,0.36 3.29,0.06 4.68,-0.83 l 7.98,-5.1 z"
               id="path12" />
            <path
               class="cls-1"
               d="m 316.89,110.93 -14.08,-3.13 c -1.59,-0.35 -3.26,-0.07 -4.64,0.8 l -8.08,5.07 c -2.92,1.83 -3.78,5.7 -1.91,8.6 l 5.17,8.02 c 0.88,1.37 2.27,2.34 3.86,2.69 l 14.08,3.13 c 3.34,0.74 6.65,-1.36 7.39,-4.7 l 2.91,-13.1 c 0.74,-3.34 -1.36,-6.65 -4.7,-7.39 z"
               id="path13" />
          </g>
          <g
             id="g24">
            <g
               id="g22">
              <g
                 id="g18">
                <path
                   class="cls-3"
                   d="m 396.04,135.33 c -3.27,12.2 3.97,22.09 16.17,22.09 h 43.08 l 2.66,-9.94 h -35.34 l 6.66,-24.85 h 69.58 l -16.72,62.4 h -85.05 c -27.45,0 -43.74,-22.25 -36.38,-49.7 7.36,-27.45 35.57,-49.7 63.02,-49.7 h 85.05 l -7.4,27.61 h -77.32 c -12.2,0 -24.74,9.89 -28.01,22.09 z"
                   id="path14" />
                <path
                   class="cls-3"
                   d="m 591.44,165.15 h -59.42 l -13.17,19.88 h -39.76 l 65.84,-99.4 h 76.21 l 12.57,99.4 h -39.76 z m -3.21,-25.4 -6.32,-49.92 -33.07,49.92 h 39.38 z"
                   id="path15" />
                <path
                   class="cls-3"
                   d="m 753.64,154.11 -8.29,30.93 H 630.48 l 26.64,-99.4 h 35.34 l -18.35,68.48 h 79.52 z"
                   id="path16" />
                <path
                   class="cls-3"
                   d="m 757.44,185.03 26.64,-99.4 h 35.34 l -26.64,99.4 z"
                   id="path17" />
                <path
                   class="cls-3"
                   d="m 900.78,165.15 h -59.42 l -13.17,19.88 h -39.76 l 65.84,-99.4 h 76.21 l 12.57,99.4 h -39.76 z m -3.21,-25.4 -6.32,-49.92 -33.07,49.92 h 39.38 z"
                   id="path18" />
              </g>
              <path
                 class="cls-11"
                 d="m 430.19,132.48 -3.1,11.56 h 35.34 l -4.51,16.82 H 412.2 c -6.85,0 -12.68,-2.68 -16.41,-7.55 -3.83,-5 -4.96,-11.88 -3.08,-18.88 0.18,-0.66 0.4,-1.31 0.62,-1.96 h -28.15 c -0.43,1.24 -0.83,2.48 -1.16,3.74 -3.36,12.55 -1.59,24.18 5,32.77 6.24,8.13 16.2,12.6 28.06,12.6 h 82.41 l 13.16,-49.11 h -62.46 z"
                 id="path19"
                 style="fill:url(#linearGradient28)" />
              <polygon
                 class="cls-2"
                 points="542.43,143.19 549.53,132.48 518.02,132.48 485.49,181.59 517,181.59 530.17,161.71 594.47,161.71 596.99,181.59 629.81,181.59 623.6,132.48 590.78,132.48 592.13,143.19 "
                 id="polygon19"
                 style="fill:url(#linear-gradient-2)" />
              <polygon
                 class="cls-7"
                 points="634.97,181.59 742.71,181.59 749.16,157.55 669.63,157.55 676.35,132.48 648.13,132.48 "
                 id="polygon20"
                 style="fill:url(#linear-gradient-3)" />
              <polygon
                 class="cls-5"
                 points="790.14,181.59 803.3,132.48 775.08,132.48 761.92,181.59 "
                 id="polygon21"
                 style="fill:url(#linear-gradient-4)" />
              <polygon
                 class="cls-8"
                 points="851.78,143.19 858.87,132.48 827.37,132.48 794.83,181.59 826.34,181.59 839.51,161.71 903.81,161.71 906.33,181.59 939.15,181.59 932.94,132.48 900.12,132.48 901.47,143.19 "
                 id="polygon22"
                 style="fill:url(#linear-gradient-5)" />
              <polyline
                 class="cls-3"
                 points="601.7 66.32 618.64 38.6 598.83 38.6 581.27 66.32"
                 id="polyline22" />
            </g>
            <g
               id="g23">
              <path
                 class="cls-3"
                 d="m 203.56,85.63 -13.32,49.7 c -7.36,27.45 -35.57,49.7 -63.02,49.7 H 62.06 L 70.64,153 h 60.75 c 10.37,0 21.03,-8.4 23.81,-18.78 l 4.74,-17.67 H 80.42 l 8.29,-30.93 h 114.87 z"
                 id="path22" />
              <path
                 class="cls-10"
                 d="m 159.22,132.48 -0.71,2.64 c -3.21,11.96 -15.12,21.33 -27.13,21.33 H 73.27 l -6.74,25.15 h 60.68 c 25.95,0 52.73,-21.15 59.7,-47.15 l 0.53,-1.96 h -28.22 z"
                 id="path23"
                 style="fill:url(#linear-gradient-6)" />
            </g>
          </g>
        </g>
      </g>
    </g>
  </g>
</svg>
