<?xml version="1.0" encoding="UTF-8"?>
<svg id="Layer_2" data-name="Layer 2" xmlns="http://www.w3.org/2000/svg" viewBox="0 0 435.03 348.56">
  <defs>
    <style>
      .cls-1 {
        fill: #ffb404;
      }

      .cls-2 {
        fill: #fff;
      }

      .cls-3 {
        fill: none;
      }

      .cls-4 {
        fill: #0686f3;
      }

      .cls-5 {
        fill: #03037f;
      }
    </style>
  </defs>
  <g id="Layer_1-2" data-name="Layer 1">
    <g>
      <g>
        <path class="cls-2" d="M406.84,90.73c-15.55,0-28.2-12.65-28.2-28.2s12.65-28.2,28.2-28.2,28.2,12.65,28.2,28.2-12.65,28.2-28.2,28.2ZM406.84,40.12c-12.36,0-22.42,10.06-22.42,22.42s10.06,22.42,22.42,22.42,22.42-10.06,22.42-22.42-10.06-22.42-22.42-22.42Z"/>
        <path class="cls-2" d="M397.28,74.85v-24.63h10.13c2.18,0,4.05.35,5.61,1.04,1.56.69,2.76,1.7,3.61,3.01.84,1.31,1.27,2.89,1.27,4.72s-.42,3.36-1.27,4.65c-.85,1.29-2.05,2.29-3.61,2.99-1.56.7-3.43,1.06-5.61,1.06h-7.57l2.01-2.04v9.22h-4.57ZM401.86,66.12l-2.01-2.22h7.35c2.02,0,3.54-.43,4.56-1.3,1.02-.87,1.53-2.08,1.53-3.63s-.51-2.75-1.53-3.61c-1.02-.86-2.54-1.28-4.56-1.28h-7.35l2.01-2.25v14.29ZM413.4,74.85l-6.23-8.94h4.89l6.26,8.94h-4.93Z"/>
      </g>
      <g>
        <g>
          <path class="cls-5" d="M333.92,95.61s-.02-.06-.03-.09c-3.65-11.24-9.83-21.03-18.36-29.09-8.82-8.34-19.48-13.94-31.68-16.66l-114.08-25.38c-11.97-2.66-23.9-2.12-35.44,1.62-4.87,1.57-9.59,3.71-14.04,6.34-.31.15-.62.33-.91.54l-.06.04c-2.4,1.48-4.72,3.11-6.9,4.86l-32.4,22.82c-1.81,1.14-3.6,2.4-5.46,3.84l-.27.19c-.27.19-.52.4-.76.62-2.64,2.12-5.08,4.38-7.26,6.72-8.29,8.88-13.85,19.45-16.51,31.42l-25.38,114.08c-2.68,12.02-2.1,23.96,1.71,35.48,3.66,11.08,9.85,20.82,18.39,28.97,8.91,8.49,19.54,14.15,31.6,16.83l114.08,25.38c12.29,2.73,24.43,2.1,36.08-1.88,5.46-1.87,10.65-4.38,15.43-7.46.13-.08.26-.16.38-.25l.08-.06c1.19-.78,2.39-1.63,3.67-2.58l37-26.06c.17-.12.33-.25.49-.38,3.73-2.67,7.18-5.68,10.28-8.95,8.33-8.82,13.91-19.39,16.59-31.4l25.38-114.08c2.66-11.96,2.11-23.88-1.62-35.45Z"/>
          <path class="cls-2" d="M205.07,348.56c-6.57,0-13.19-.74-19.85-2.22l-114.08-25.38c-16.15-3.59-30.4-11.19-42.34-22.57-11.27-10.75-19.44-23.63-24.29-38.28-5.11-15.46-5.89-31.46-2.32-47.55l25.38-114.08c3.56-15.98,10.99-30.11,22.08-42,2.76-2.96,5.83-5.83,9.12-8.51.73-.63,1.49-1.24,2.28-1.8,2.14-1.64,4.21-3.1,6.32-4.45l31.42-22.12c2.58-2.03,5.3-3.94,8.09-5.69.76-.51,1.54-.98,2.35-1.41,5.73-3.35,11.82-6.07,18.1-8.1,15.45-5.01,31.39-5.74,47.37-2.18l114.08,25.38c16.26,3.62,30.51,11.13,42.36,22.32,11.25,10.63,19.41,23.51,24.27,38.29l.13.41c5,15.47,5.74,31.41,2.18,47.37l-25.38,114.08c-3.58,16.07-11.06,30.22-22.24,42.07-3.97,4.19-8.35,8.03-13.05,11.45-.37.29-.76.58-1.15.85l-36.75,25.88c-1.49,1.11-2.92,2.12-4.34,3.05-.36.24-.68.46-1,.66-6.27,4.02-13.06,7.29-20.19,9.74-9.34,3.19-18.88,4.79-28.54,4.79ZM88.08,82.73l-.28.23c-1.8,1.45-3.45,2.98-4.9,4.53-5.5,5.89-9.18,12.91-10.95,20.87l-25.38,114.08c-1.77,7.97-1.4,15.84,1.1,23.41,2.48,7.51,6.69,14.12,12.5,19.66,5.95,5.67,12.77,9.3,20.85,11.1l114.08,25.38c8.27,1.84,16.05,1.45,23.79-1.21,3.68-1.26,7.2-2.96,10.43-5.03l.4-.27c.76-.5,1.56-1.06,2.45-1.73l.56-.41,37.34-26.33c2.54-1.82,4.9-3.88,7.01-6.1,5.54-5.86,9.11-12.65,10.91-20.72l25.38-114.08c1.75-7.88,1.42-15.73-1-23.32l-.08-.26c-2.47-7.59-6.62-14.18-12.36-19.6-5.8-5.48-12.87-9.18-21.01-10.99l-114.08-25.38c-7.96-1.77-15.87-1.41-23.51,1.06-3.28,1.06-6.46,2.5-9.45,4.27l-.66.39c-1.6.98-3.14,2.06-4.58,3.23l-1.14.86-33.39,23.47c-1.16.73-2.35,1.57-3.63,2.56l-.41.32Z"/>
        </g>
        <path class="cls-5" d="M333.92,95.61s-.02-.06-.03-.09c-3.65-11.24-9.83-21.03-18.36-29.09-8.82-8.34-19.48-13.94-31.68-16.66l-114.08-25.38c-11.97-2.66-23.9-2.12-35.44,1.62-4.87,1.57-9.59,3.71-14.04,6.34-.31.15-.62.33-.91.54l-.06.04c-2.4,1.48-4.72,3.11-6.9,4.86l-32.4,22.82c-1.81,1.14-3.6,2.4-5.46,3.84l-.27.19c-.27.19-.52.4-.76.62-2.64,2.12-5.08,4.38-7.26,6.72-8.29,8.88-13.85,19.45-16.51,31.42l-25.38,114.08c-2.68,12.02-2.1,23.96,1.71,35.48,3.66,11.08,9.85,20.82,18.39,28.97,8.91,8.49,19.54,14.15,31.6,16.83l114.08,25.38c12.29,2.73,24.43,2.1,36.08-1.88,5.46-1.87,10.65-4.38,15.43-7.46.13-.08.26-.16.38-.25l.08-.06c1.19-.78,2.39-1.63,3.67-2.58l37-26.06c.17-.12.33-.25.49-.38,3.73-2.67,7.18-5.68,10.28-8.95,8.33-8.82,13.91-19.39,16.59-31.4l25.38-114.08c2.66-11.96,2.11-23.88-1.62-35.45Z"/>
        <g>
          <g>
            <path class="cls-3" d="M142.78,92l12.82,2.85,2.85-12.82c1.58-7.08-2.89-14.1-9.97-15.67h0c-7.08-1.58-14.1,2.89-15.67,9.97s2.89,14.1,9.97,15.67Z"/>
            <path class="cls-3" d="M105.07,211.45c-1.58,7.08,2.89,14.1,9.97,15.67h0c7.08,1.58,14.1-2.89,15.67-9.97l2.85-12.82-12.82-2.85c-7.08-1.58-14.1,2.89-15.67,9.97Z"/>
            <path class="cls-3" d="M255.87,229.23l-12.82-2.85-2.85,12.82c-1.58,7.08,2.89,14.1,9.97,15.67h0c7.08,1.58,14.1-2.89,15.67-9.97,1.58-7.08-2.89-14.1-9.97-15.67Z"/>
            <path class="cls-3" d="M293.58,109.77c1.58-7.08-2.89-14.1-9.97-15.67h0c-7.08-1.58-14.1,2.89-15.67,9.97l-2.85,12.82,12.82,2.85c7.08,1.58,14.1-2.89,15.67-9.97Z"/>
            <path class="cls-2" d="M307.93,104.02c-2.23-6.9-5.95-12.81-11.16-17.73-5.21-4.93-11.5-8.21-18.85-9.84l-114.08-25.38c-7.18-1.6-14.21-1.28-21.11.95-6.9,2.23-12.82,6-17.76,11.3-4.95,5.3-8.21,11.54-9.81,18.71l-25.38,114.08c-1.6,7.17-1.27,14.16.98,20.97,2.25,6.81,6.01,12.73,11.3,17.76,5.28,5.03,11.51,8.35,18.68,9.95l114.08,25.38c7.35,1.64,14.44,1.28,21.27-1.05,6.82-2.34,12.7-6.12,17.63-11.33,4.92-5.21,8.18-11.41,9.78-18.58l25.38-114.08c1.6-7.18,1.28-14.21-.95-21.11ZM267.94,104.07c1.58-7.08,8.59-11.54,15.67-9.97h0c7.08,1.58,11.54,8.59,9.97,15.67-1.58,7.08-8.59,11.54-15.67,9.97l-12.82-2.85,2.85-12.82ZM148.49,66.36h0c7.08,1.58,11.54,8.59,9.97,15.67l-2.85,12.82-12.82-2.85c-7.08-1.58-11.54-8.59-9.97-15.67s8.59-11.54,15.67-9.97ZM130.71,217.15c-1.58,7.08-8.59,11.54-15.67,9.97h0c-7.08-1.58-11.54-8.59-9.97-15.67,1.58-7.08,8.59-11.54,15.67-9.97l12.82,2.85-2.85,12.82ZM250.16,254.87h0c-7.08-1.58-11.54-8.59-9.97-15.67l2.85-12.82,12.82,2.85c7.08,1.58,11.54,8.59,9.97,15.67-1.58,7.08-8.59,11.54-15.67,9.97ZM264.8,203.43l-54.46,34.63c-18.17,11.56-42.28,6.2-53.84-11.98l-34.63-54.46c-11.56-18.17-6.2-42.28,11.98-53.84l54.46-34.63c18.17-11.56,42.28-6.2,53.84,11.98l34.63,54.46c11.56,18.17,6.2,42.28-11.98,53.84Z"/>
            <path class="cls-4" d="M202.85,176.64c-2.94-4.6-9.05-5.96-13.67-3.04l-12.81,8.11c-2.23,1.41-3.8,3.65-4.38,6.23l-5.01,22.5c-1.19,5.35,2.18,10.65,7.53,11.84l20.97,4.67c5.35,1.19,10.65-2.18,11.84-7.53l5.01-22.5c.57-2.58.1-5.27-1.32-7.5l-8.16-12.77Z"/>
            <path class="cls-4" d="M195.56,144.69c2.94,4.68,9.13,6.05,13.77,3.06l12.84-8.27c2.2-1.41,3.75-3.64,4.31-6.19l5.02-22.55c1.19-5.35-2.18-10.65-7.53-11.84l-20.97-4.67c-5.35-1.19-10.65,2.18-11.84,7.53l-5.02,22.55c-.57,2.55-.11,5.22,1.28,7.43l8.13,12.94Z"/>
            <path class="cls-1" d="M186.25,150.53l-8.11-12.81c-1.41-2.23-3.65-3.8-6.23-4.38l-22.5-5.01c-5.35-1.19-10.65,2.18-11.84,7.53l-4.67,20.97c-1.19,5.35,2.18,10.65,7.53,11.84l22.5,5.01c2.58.57,5.27.1,7.5-1.32l12.77-8.16c4.6-2.94,5.96-9.05,3.04-13.67Z"/>
            <path class="cls-1" d="M258.06,152.51l-22.55-5.02c-2.55-.57-5.22-.11-7.43,1.28l-12.94,8.13c-4.68,2.94-6.05,9.13-3.06,13.77l8.27,12.84c1.41,2.2,3.64,3.75,6.19,4.31l22.55,5.02c5.35,1.19,10.65-2.18,11.84-7.53l4.67-20.97c1.19-5.35-2.18-10.65-7.53-11.84Z"/>
          </g>
          <circle class="cls-5" cx="288.52" cy="137.97" r="5.65"/>
          <circle class="cls-5" cx="255.01" cy="88.14" r="5.65"/>
          <circle class="cls-5" cx="268.97" cy="216.87" r="5.65"/>
          <circle class="cls-5" cx="219.14" cy="250.39" r="5.65"/>
          <circle class="cls-5" cx="144.84" cy="231.73" r="5.65"/>
          <circle class="cls-5" cx="111.32" cy="181.9" r="5.65"/>
          <circle class="cls-5" cx="126.75" cy="108.18" r="5.65"/>
          <circle class="cls-5" cx="176.58" cy="74.67" r="5.65"/>
        </g>
      </g>
    </g>
  </g>
</svg>