<?xml version="1.0" encoding="UTF-8"?>
<svg id="Layer_2" data-name="Layer 2" xmlns="http://www.w3.org/2000/svg" xmlns:xlink="http://www.w3.org/1999/xlink" viewBox="0 0 1008.57 247.15">
  <defs>
    <style>
      .cls-1 {
        fill: #ffb404;
      }

      .cls-2 {
        fill: url(#linear-gradient-2);
      }

      .cls-3 {
        fill: #fff;
      }

      .cls-4 {
        fill: none;
      }

      .cls-5 {
        fill: url(#linear-gradient-4);
      }

      .cls-6 {
        fill: #0686f3;
      }

      .cls-7 {
        fill: url(#linear-gradient-3);
      }

      .cls-8 {
        fill: url(#linear-gradient-5);
      }

      .cls-9 {
        fill: #03037f;
      }

      .cls-10 {
        fill: url(#linear-gradient-6);
      }

      .cls-11 {
        fill: url(#linear-gradient);
      }
    </style>
    <linearGradient id="linear-gradient" x1="427.5" y1="181.48" x2="427.5" y2="116.15" gradientUnits="userSpaceOnUse">
      <stop offset="0" stop-color="#010298" stop-opacity="0"/>
      <stop offset="1" stop-color="#010298"/>
    </linearGradient>
    <linearGradient id="linear-gradient-2" x1="557.65" y1="181.48" x2="557.65" y2="116.15" xlink:href="#linear-gradient"/>
    <linearGradient id="linear-gradient-3" x1="692.07" y1="181.48" x2="692.07" y2="116.15" xlink:href="#linear-gradient"/>
    <linearGradient id="linear-gradient-4" x1="782.61" y1="181.48" x2="782.61" y2="116.15" xlink:href="#linear-gradient"/>
    <linearGradient id="linear-gradient-5" x1="866.99" y1="181.48" x2="866.99" y2="116.15" xlink:href="#linear-gradient"/>
    <linearGradient id="linear-gradient-6" x1="126.99" y1="181.48" x2="126.99" y2="116.15" xlink:href="#linear-gradient"/>
  </defs>
  <g id="Layer_1-2" data-name="Layer 1">
    <g>
      <path class="cls-3" d="M981.35,180.19l-12.57-99.4c-2.43-19.25-18.9-33.76-38.3-33.76h-76.21c-6.18,0-12.14,1.46-17.47,4.17-5.34-2.7-11.3-4.17-17.39-4.17h-35.34c-9.62,0-18.79,3.55-25.92,10.01-.36.31-.71.64-1.05.98l-.4.41c-.23.22-.45.45-.67.68l-25,25.3c-.27-7.99-3-15.84-7.94-22.28-7.26-9.46-18.7-15.1-30.62-15.1h-35.34c-.27,0-.55,0-.82,0,2.04-9.15.72-18.9-4-27.32-6.82-12.16-19.72-19.72-33.67-19.72h-19.81c-9.05,0-17.81,3.19-24.75,8.99-.28.22-.55.45-.82.69l-46.55,41.8c-5.49-2.88-11.65-4.46-17.95-4.46h-85.05c-14.83,0-29.78,3.69-43.69,10.63-3.24-5.98-7.4-11.39-12.44-16.15-8.37-7.91-18.43-13.22-29.9-15.77l-71.24-15.85c-11.28-2.51-22.53-1.99-33.45,1.54-6.55,2.12-12.66,5.23-18.18,9.25-.21.14-.41.28-.61.43l-35.08,25.91h-90.42c-10.04,0-19.48,3.81-26.71,10.76-.22.2-.44.41-.66.63l-23.24,23.28c-.2.2-.39.4-.58.61-4.57,4.72-7.87,10.52-9.57,16.85l-8.29,30.93c-1.72,6.42-1.71,13.15-.1,19.48-4.62,4.73-7.95,10.56-9.66,16.97L1.3,198.55c-3.09,11.51-.6,24.04,6.66,33.49,7.26,9.46,18.7,15.1,30.62,15.1h65.17c24.78,0,50.33-10.58,70.09-29.02.07-.06.13-.13.2-.19l.05-.05c7.39,5.79,15.84,9.77,25.19,11.85l71.25,15.85c4.65,1.03,9.35,1.56,13.98,1.56,6.85,0,13.65-1.14,20.21-3.38,7.88-2.7,14.99-6.74,21.24-12.04,13.18,9.94,29.78,15.42,47.66,15.42h121.77c12.98,0,25.01-6.46,32.18-17.28l1.72-2.6h7.45c6.65,11.93,19.39,19.88,33.75,19.88h234.24c12.98,0,25.01-6.46,32.18-17.28l1.72-2.6h7.46c6.64,11.93,19.39,19.88,33.75,19.88h39.76c9.07,0,17.89-3.22,24.84-9.06,1.48-1.24,2.86-2.59,4.16-4.07.04-.05.09-.1.13-.15l19.17-19.28c1.49-1.25,2.87-2.59,4.12-4.01.52-.59,1.03-1.21,1.57-1.9.02-.03.04-.06.06-.08,6.27-8.13,9.01-18.21,7.72-28.4Z"/>
      <g>
        <path class="cls-9" d="M959.49,197.76c3.36-4.34,4.89-9.85,4.19-15.33l-12.57-99.4c-1.31-10.39-10.15-18.18-20.62-18.18h-76.21c-6.97,0-13.48,3.5-17.33,9.31l-.1.16c-.29-.45-.6-.9-.93-1.33-3.93-5.13-10.03-8.13-16.49-8.13h-35.34c-5.46,0-10.52,2.14-14.28,5.7h0s-.41.4-.41.4c-.18.18-.37.36-.55.55l-60.26,60.98h-7.14l11.11-41.47c1.67-6.24.35-12.91-3.59-18.03-3.93-5.13-10.03-8.13-16.49-8.13h-35.34c-7.56,0-14.35,4.08-18,10.4-2.74-4.73-7.26-8.25-12.6-9.68l9.85-16.12c3.92-6.42,4.07-14.45.39-21.01-3.68-6.56-10.61-10.62-18.13-10.62h-19.81c-5.09,0-9.92,1.87-13.66,5.13h0s-58.35,52.39-58.35,52.39c-.46-.82-.98-1.61-1.56-2.36-3.93-5.13-10.03-8.13-16.49-8.13h-85.05c-19.28,0-38.47,7.85-53.78,20.57-.24-3.76-.93-7.5-2.12-11.17,0,0,0,0,0,0-2.47-7.64-6.67-14.3-12.47-19.78-6-5.67-13.25-9.49-21.53-11.33l-71.24-15.85c-8.14-1.81-16.25-1.44-24.09,1.1-5,1.62-9.57,4-13.68,7.07h-.01s-39.8,29.39-39.8,29.39h-96.29c-5.7,0-10.95,2.33-14.76,6.17v-.02s-23.24,23.28-23.24,23.28h.02c-2.6,2.55-4.57,5.78-5.56,9.48l-8.29,30.93c-1.67,6.24-.35,12.91,3.59,18.03.17.22.37.42.54.63l-7.99,7.96c-2.78,2.59-4.87,5.95-5.91,9.82l-8.58,32.03c-1.67,6.24-.35,12.91,3.59,18.03,3.93,5.13,10.03,8.13,16.49,8.13h65.17c21.06,0,42.02-9.37,57.93-24.23l2.29-2.2c3.61-3.6,6.92-7.49,9.88-11.62,2.15,3.49,4.74,6.71,7.8,9.62,6.06,5.77,13.29,9.63,21.49,11.45l71.25,15.85c3.39.75,6.77,1.13,10.11,1.13,4.89,0,9.72-.81,14.43-2.42,7.45-2.56,13.97-6.75,19.38-12.47,2.63-2.79,4.84-5.84,6.65-9.11.45.64.89,1.29,1.37,1.91,10.77,14.03,28,22.08,47.28,22.08h121.76c6.97,0,13.48-3.5,17.33-9.31l7-10.57h29.94l.22,1.7c1.31,10.39,10.15,18.18,20.62,18.18h234.24c6.97,0,13.48-3.5,17.33-9.31l7-10.57h29.94l.22,1.7c1.31,10.39,10.15,18.18,20.62,18.18h39.76c4.93,0,9.65-1.75,13.38-4.88h0c.79-.66,1.53-1.38,2.22-2.16.13-.15.25-.3.37-.44l20.35-20.48c.98-.77,1.91-1.63,2.75-2.59.29-.33.57-.67.83-1.01h0s0,0,0,0Z"/>
        <g>
          <g>
            <path class="cls-4" d="M306.95,75.09c-7.22-11.35-22.27-14.7-33.62-7.48l-34.01,21.63c-11.35,7.22-14.7,22.27-7.48,33.62l21.63,34.01c7.22,11.35,22.27,14.7,33.62,7.48l34.01-21.63c11.35-7.22,14.7-22.27,7.48-33.62l-21.63-34.01ZM271.98,93.32l3.13-14.08c.74-3.34,4.05-5.45,7.39-4.7l13.1,2.91c3.34.74,5.45,4.05,4.7,7.39l-3.13,14.08c-.35,1.59-1.32,2.98-2.69,3.86l-8.02,5.17c-2.9,1.87-6.77,1.01-8.6-1.91l-5.07-8.08c-.87-1.38-1.16-3.05-.8-4.64ZM257.48,124.15l-14.05-3.13c-3.34-.74-5.45-4.05-4.7-7.39l2.91-13.1c.74-3.34,4.05-5.45,7.39-4.7l14.05,3.13c1.61.36,3.01,1.34,3.89,2.73l5.06,8c1.82,2.88.98,6.7-1.9,8.54l-7.98,5.1c-1.39.89-3.07,1.18-4.68.83ZM288.34,138.65l-3.13,14.05c-.74,3.34-4.05,5.45-7.39,4.7l-13.1-2.91c-3.34-.74-5.45-4.05-4.7-7.39l3.13-14.05c.36-1.61,1.34-3.01,2.73-3.89l8-5.06c2.88-1.82,6.7-.98,8.54,1.9l5.1,7.98c.89,1.39,1.18,3.07.83,4.68ZM321.6,118.32l-2.91,13.1c-.74,3.34-4.05,5.45-7.39,4.7l-14.08-3.13c-1.59-.35-2.98-1.32-3.86-2.69l-5.17-8.02c-1.87-2.9-1.01-6.77,1.91-8.6l8.08-5.07c1.38-.87,3.05-1.16,4.64-.8l14.08,3.13c3.34.74,5.45,4.05,4.7,7.39Z"/>
            <path class="cls-4" d="M244.9,73.13l8.01,1.78,1.78-8.01c.98-4.42-1.8-8.8-6.22-9.79h0c-4.42-.98-8.8,1.8-9.79,6.22-.98,4.42,1.8,8.8,6.22,9.79Z"/>
            <path class="cls-4" d="M221.34,147.73c-.98,4.42,1.8,8.8,6.22,9.79h0c4.42.98,8.8-1.8,9.79-6.23l1.78-8.01-8.01-1.78c-4.42-.98-8.8,1.8-9.79,6.22Z"/>
            <path class="cls-4" d="M315.52,158.84l-8.01-1.78-1.78,8.01c-.98,4.42,1.8,8.8,6.22,9.79h0c4.42.98,8.8-1.8,9.79-6.23.98-4.42-1.8-8.8-6.22-9.79Z"/>
            <path class="cls-4" d="M339.08,84.23c.98-4.42-1.8-8.8-6.22-9.79h0c-4.42-.98-8.8,1.8-9.79,6.22l-1.78,8.01,8.01,1.78c4.42.98,8.8-1.8,9.79-6.22Z"/>
            <path class="cls-3" d="M348.03,80.64c-1.39-4.31-3.72-8-6.97-11.07-3.26-3.08-7.18-5.12-11.77-6.15l-71.25-15.85c-4.48-1-8.88-.8-13.18.59-4.31,1.39-8.01,3.74-11.09,7.06-3.09,3.31-5.13,7.2-6.13,11.69l-15.85,71.25c-1,4.48-.79,8.85.61,13.1,1.41,4.25,3.76,7.95,7.05,11.09,3.3,3.14,7.19,5.21,11.67,6.21l71.25,15.85c4.59,1.02,9.02.8,13.29-.66,4.26-1.46,7.93-3.82,11.01-7.07,3.07-3.26,5.11-7.12,6.11-11.6l15.85-71.25c1-4.48.8-8.88-.59-13.18ZM323.06,80.67c.98-4.42,5.37-7.21,9.79-6.22h0c4.42.98,7.21,5.37,6.22,9.79-.98,4.42-5.37,7.21-9.79,6.22l-8.01-1.78,1.78-8.01ZM314.99,67.19c1.95,0,3.53,1.58,3.53,3.53s-1.58,3.53-3.53,3.53-3.53-1.58-3.53-3.53,1.58-3.53,3.53-3.53ZM266,58.78c1.95,0,3.53,1.58,3.53,3.53s-1.58,3.53-3.53,3.53-3.53-1.58-3.53-3.53,1.58-3.53,3.53-3.53ZM238.67,63.34c.98-4.42,5.37-7.21,9.79-6.22h0c4.42.98,7.21,5.37,6.22,9.79l-1.78,8.01-8.01-1.78c-4.42-.98-7.21-5.37-6.22-9.79ZM234.88,79.71c1.95,0,3.53,1.58,3.53,3.53s-1.58,3.53-3.53,3.53-3.53-1.58-3.53-3.53,1.58-3.53,3.53-3.53ZM225.25,125.75c1.95,0,3.53,1.58,3.53,3.53s-1.58,3.53-3.53,3.53-3.53-1.58-3.53-3.53,1.58-3.53,3.53-3.53ZM237.36,151.3c-.98,4.42-5.37,7.21-9.79,6.23h0c-4.42-.98-7.21-5.37-6.22-9.79.98-4.42,5.37-7.21,9.79-6.22l8.01,1.78-1.78,8.01ZM246.18,163.93c-1.95,0-3.53-1.58-3.53-3.53s1.58-3.53,3.53-3.53,3.53,1.58,3.53,3.53-1.58,3.53-3.53,3.53ZM292.58,175.58c-1.95,0-3.53-1.58-3.53-3.53s1.58-3.53,3.53-3.53,3.53,1.58,3.53,3.53-1.58,3.53-3.53,3.53ZM321.75,168.63c-.98,4.42-5.37,7.21-9.79,6.23h0c-4.42-.98-7.21-5.37-6.22-9.79l1.78-8.01,8.01,1.78c4.42.98,7.21,5.37,6.22,9.79ZM323.7,154.65c-1.95,0-3.53-1.58-3.53-3.53s1.58-3.53,3.53-3.53,3.53,1.58,3.53,3.53-1.58,3.53-3.53,3.53ZM321.1,142.73l-34.01,21.63c-11.35,7.22-26.4,3.87-33.62-7.48l-21.63-34.01c-7.22-11.35-3.87-26.4,7.48-33.62l34.01-21.63c11.35-7.22,26.4-3.87,33.62,7.48l21.63,34.01c7.22,11.35,3.87,26.4-7.48,33.62ZM335.92,105.37c-1.95,0-3.53-1.58-3.53-3.53s1.58-3.53,3.53-3.53,3.53,1.58,3.53,3.53-1.58,3.53-3.53,3.53Z"/>
            <path class="cls-6" d="M282.41,125.99c-1.84-2.87-5.65-3.72-8.54-1.9l-8,5.06c-1.39.88-2.38,2.28-2.73,3.89l-3.13,14.05c-.74,3.34,1.36,6.65,4.7,7.39l13.1,2.91c3.34.74,6.65-1.36,7.39-4.7l3.13-14.05c.36-1.61.06-3.29-.83-4.68l-5.1-7.98Z"/>
            <path class="cls-6" d="M277.86,106.04c1.83,2.92,5.7,3.78,8.6,1.91l8.02-5.17c1.37-.88,2.34-2.27,2.69-3.86l3.13-14.08c.74-3.34-1.36-6.65-4.7-7.39l-13.1-2.91c-3.34-.74-6.65,1.36-7.39,4.7l-3.13,14.08c-.35,1.59-.07,3.26.8,4.64l5.07,8.08Z"/>
            <path class="cls-1" d="M270.14,118.22c2.87-1.84,3.72-5.65,1.9-8.54l-5.06-8c-.88-1.39-2.28-2.38-3.89-2.73l-14.05-3.13c-3.34-.74-6.65,1.36-7.39,4.7l-2.91,13.1c-.74,3.34,1.36,6.65,4.7,7.39l14.05,3.13c1.61.36,3.29.06,4.68-.83l7.98-5.1Z"/>
            <path class="cls-1" d="M316.89,110.93l-14.08-3.13c-1.59-.35-3.26-.07-4.64.8l-8.08,5.07c-2.92,1.83-3.78,5.7-1.91,8.6l5.17,8.02c.88,1.37,2.27,2.34,3.86,2.69l14.08,3.13c3.34.74,6.65-1.36,7.39-4.7l2.91-13.1c.74-3.34-1.36-6.65-4.7-7.39Z"/>
          </g>
          <g>
            <g>
              <g>
                <path class="cls-3" d="M396.04,135.33c-3.27,12.2,3.97,22.09,16.17,22.09h43.08l2.66-9.94h-35.34l6.66-24.85h69.58l-16.72,62.4h-85.05c-27.45,0-43.74-22.25-36.38-49.7,7.36-27.45,35.57-49.7,63.02-49.7h85.05l-7.4,27.61h-77.32c-12.2,0-24.74,9.89-28.01,22.09Z"/>
                <path class="cls-3" d="M591.44,165.15h-59.42l-13.17,19.88h-39.76l65.84-99.4h76.21l12.57,99.4h-39.76l-2.51-19.88ZM588.23,139.75l-6.32-49.92-33.07,49.92h39.38Z"/>
                <path class="cls-3" d="M753.64,154.11l-8.29,30.93h-114.87l26.64-99.4h35.34l-18.35,68.48h79.52Z"/>
                <path class="cls-3" d="M757.44,185.03l26.64-99.4h35.34l-26.64,99.4h-35.34Z"/>
                <path class="cls-3" d="M900.78,165.15h-59.42l-13.17,19.88h-39.76l65.84-99.4h76.21l12.57,99.4h-39.76l-2.51-19.88ZM897.57,139.75l-6.32-49.92-33.07,49.92h39.38Z"/>
              </g>
              <path class="cls-11" d="M430.19,132.48l-3.1,11.56h35.34l-4.51,16.82h-45.72c-6.85,0-12.68-2.68-16.41-7.55-3.83-5-4.96-11.88-3.08-18.88.18-.66.4-1.31.62-1.96h-28.15c-.43,1.24-.83,2.48-1.16,3.74-3.36,12.55-1.59,24.18,5,32.77,6.24,8.13,16.2,12.6,28.06,12.6h82.41l13.16-49.11h-62.46Z"/>
              <polygon class="cls-2" points="590.78 132.48 592.13 143.19 542.43 143.19 549.53 132.48 518.02 132.48 485.49 181.59 517 181.59 530.17 161.71 594.47 161.71 596.99 181.59 629.81 181.59 623.6 132.48 590.78 132.48"/>
              <polygon class="cls-7" points="676.35 132.48 648.13 132.48 634.97 181.59 742.71 181.59 749.16 157.55 669.63 157.55 676.35 132.48"/>
              <polygon class="cls-5" points="775.08 132.48 761.92 181.59 790.14 181.59 803.3 132.48 775.08 132.48"/>
              <polygon class="cls-8" points="900.12 132.48 901.47 143.19 851.78 143.19 858.87 132.48 827.37 132.48 794.83 181.59 826.34 181.59 839.51 161.71 903.81 161.71 906.33 181.59 939.15 181.59 932.94 132.48 900.12 132.48"/>
              <polyline class="cls-3" points="601.7 66.32 618.64 38.6 598.83 38.6 581.27 66.32"/>
            </g>
            <g>
              <path class="cls-3" d="M203.56,85.63l-13.32,49.7c-7.36,27.45-35.57,49.7-63.02,49.7H62.06l8.58-32.03h60.75c10.37,0,21.03-8.4,23.81-18.78l4.74-17.67h-79.52l8.29-30.93h114.87Z"/>
              <path class="cls-10" d="M159.22,132.48l-.71,2.64c-3.21,11.96-15.12,21.33-27.13,21.33h-58.11l-6.74,25.15h60.68c25.95,0,52.73-21.15,59.7-47.15l.53-1.96h-28.22Z"/>
            </g>
          </g>
        </g>
      </g>
      <g>
        <path class="cls-3" d="M993.21,78.08c-8.47,0-15.35-6.89-15.35-15.35s6.89-15.35,15.35-15.35,15.35,6.89,15.35,15.35-6.89,15.35-15.35,15.35ZM993.21,50.52c-6.73,0-12.21,5.48-12.21,12.21s5.48,12.21,12.21,12.21,12.21-5.48,12.21-12.21-5.48-12.21-12.21-12.21Z"/>
        <path class="cls-3" d="M988.01,69.43v-13.41h5.52c1.19,0,2.21.19,3.06.57.85.38,1.5.92,1.96,1.64.46.72.69,1.57.69,2.57s-.23,1.83-.69,2.53c-.46.7-1.12,1.25-1.96,1.63-.85.38-1.87.57-3.06.57h-4.12l1.09-1.11v5.02h-2.49ZM990.5,64.68l-1.09-1.21h4c1.1,0,1.93-.24,2.48-.71.56-.47.83-1.13.83-1.97s-.28-1.5-.83-1.96c-.56-.47-1.38-.7-2.48-.7h-4l1.09-1.23v7.78ZM996.79,69.43l-3.39-4.87h2.66l3.41,4.87h-2.68Z"/>
      </g>
    </g>
  </g>
</svg>